<mxfile host="app.diagrams.net" agent="Mozilla/5.0 (Windows NT 10.0; Win64; x64) AppleWebKit/537.36 (KHTML, like Gecko) Chrome/133.0.0.0 Safari/537.36" version="26.0.16">
  <diagram name="第 1 页" id="GsMdaZAhhMwUhDkJRUC-">
    <mxGraphModel dx="977" dy="2819" grid="1" gridSize="10" guides="1" tooltips="1" connect="1" arrows="1" fold="1" page="1" pageScale="1" pageWidth="827" pageHeight="1169" math="0" shadow="0">
      <root>
        <mxCell id="0" />
        <mxCell id="1" parent="0" />
        <UserObject label="" plantUmlData="{&#xa;  &quot;data&quot;: &quot;@startuml\n&#39; 让整体布局更紧凑一些，可根据需要自行调节\nskinparam ranksep 40\nskinparam nodesep 20\n\n&#39; ============= Backbone =============\n&#39; 第 0 层\nrectangle \&quot;0: HGStem(16,32)\\nOutput: P2/4\&quot; as L0\n\n&#39; 第 1 层\nrectangle \&quot;1: C2f_gConv(32)\\nOutput: P2/4\&quot; as L1\nL0 --&gt; L1\n\n&#39; 第 2 层\nrectangle \&quot;2: Conv(64,3,2)\\nOutput: P3/8\&quot; as L2\nL1 --&gt; L2\n\n&#39; 第 3 层\nrectangle \&quot;3: C2f_gConv(64)\\nOutput: P3/8\&quot; as L3\nL2 --&gt; L3\n\n&#39; 第 4 层 (来自 0 与 3)\nrectangle \&quot;4: HGBlock(16,32,3)\\nOutput: P2/4\&quot; as L4\nL0 --&gt; L4\nL3 --&gt; L4\n\n&#39; 第 5 层\nrectangle \&quot;5: DWConv(64,3,2,1,False)\\nOutput: P3/8\&quot; as L5\nL4 --&gt; L5\n\n&#39; 第 6 层\nrectangle \&quot;6: HGBlock(32,64,3)\\nOutput: P3/8\&quot; as L6\nL5 --&gt; L6\n\n&#39; 第 7 层 (来自 3 与 6)\nrectangle \&quot;7: MultiScaleGatedAttn\\nOutput: P3/8\&quot; as L7\nL3 --&gt; L7\nL6 --&gt; L7\n\n&#39; 第 8 层\nrectangle \&quot;8: Conv(128,3,2)\\nOutput: P4/16\&quot; as L8\nL7 --&gt; L8\n\n&#39; 第 9 层\nrectangle \&quot;9: C2f_gConv(128)\\nOutput: P4/16\&quot; as L9\nL8 --&gt; L9\n\n&#39; 第 10 层 (DWConv)，输入来自 L7\nrectangle \&quot;10: DWConv(128,3,2,1,False)\\nOutput: P4/16\&quot; as L10\nL7 --&gt; L10\n\n&#39; 第 11 层\nrectangle \&quot;11: HGBlock(64,128,5,True,False)\\nOutput: P4/16\&quot; as L11\nL10 --&gt; L11\n\n&#39; 第 12 层\nrectangle \&quot;12: HGBlock(64,128,5,True,True)\\nOutput: P4/16\&quot; as L12\nL11 --&gt; L12\n\n&#39; 第 13 层\nrectangle \&quot;13: HGBlock(64,128,5,True,True)\\nOutput: P4/16\&quot; as L13\nL12 --&gt; L13\n\n&#39; 第 14 层 (MultiScaleGatedAttn)，输入来自 9, 13\nrectangle \&quot;14: MultiScaleGatedAttn\\nOutput: P4/16\&quot; as L14\nL9 --&gt; L14\nL13 --&gt; L14\n\n&#39; 第 15 层\nrectangle \&quot;15: Conv(256,3,2)\\nOutput: P5/32\&quot; as L15\nL14 --&gt; L15\n\n&#39; 第 16 层\nrectangle \&quot;16: C2f_gConv(256)\\nOutput: P5/32\&quot; as L16\nL15 --&gt; L16\n\n&#39; 第 17 层 (DWConv)，输入来自 14\nrectangle \&quot;17: DWConv(256,3,2,1,False)\\nOutput: P5/32\&quot; as L17\nL14 --&gt; L17\n\n&#39; 第 18 层\nrectangle \&quot;18: HGBlock(128,256,5,True,False)\\nOutput: P5/32\&quot; as L18\nL17 --&gt; L18\n\n&#39; 第 19 层 (MultiScaleGatedAttn)，输入来自 16, 18\nrectangle \&quot;19: MultiScaleGatedAttn\\nOutput: P5/32\&quot; as L19\nL16 --&gt; L19\nL18 --&gt; L19\n\n\n&#39; ============= Head =============\n&#39; 注意：head 从上一层输出 (19) 继续往下\n\n&#39; 第 20 层\nrectangle \&quot;20: Conv(256,1,1)\\n(input_proj.2)\&quot; as L20\nL19 --&gt; L20\n\n&#39; 第 21 层\nrectangle \&quot;21: AIFI(1024,8)\&quot; as L21\nL20 --&gt; L21\n\n&#39; 第 22 层\nrectangle \&quot;22: Conv(256,1,1)\\n(Y5, lateral_convs.0)\&quot; as L22\nL21 --&gt; L22\n\n&#39; 第 23 层 (PyramidContextExtraction)，输入来自 7,14,22\nrectangle \&quot;23: PyramidContextExtraction\\n(from layers 7,14,22)\&quot; as L23\nL7 --&gt; L23\nL14 --&gt; L23\nL22 --&gt; L23\n\n&#39; 第 24 层 (GetIndexOutput(0) -&gt; P3/8)\nrectangle \&quot;24: GetIndexOutput(0)\\nP3/8\&quot; as L24\nL23 --&gt; L24\n\n&#39; 第 25 层 (GetIndexOutput(1) -&gt; P4/16)\nrectangle \&quot;25: GetIndexOutput(1)\\nP4/16\&quot; as L25\nL23 --&gt; L25\n\n&#39; 第 26 层 (GetIndexOutput(2) -&gt; P5/32)\nrectangle \&quot;26: GetIndexOutput(2)\\nP5/32\&quot; as L26\nL23 --&gt; L26\n\n&#39; 第 27 层 (RCM)，输入来自 22\nrectangle \&quot;27: RCM\\n(P5/32)\&quot; as L27\nL22 --&gt; L27\n\n&#39; 第 28 层 (FuseBlockMulti)，输入来自 27, 26\nrectangle \&quot;28: FuseBlockMulti\\n(P5/32)\&quot; as L28\nL27 --&gt; L28\nL26 --&gt; L28\n\n&#39; 第 29 层 (RCM)，输入来自 14\nrectangle \&quot;29: RCM\\n(P4/16)\&quot; as L29\nL14 --&gt; L29\n\n&#39; 第 30 层 (DynamicInterpolationFusion)，输入来自 29,28\nrectangle \&quot;30: DynamicInterpolationFusion\\n(P4/16)\&quot; as L30\nL29 --&gt; L30\nL28 --&gt; L30\n\n&#39; 第 31 层 (FuseBlockMulti)，输入来自 30,25\nrectangle \&quot;31: FuseBlockMulti\\n(P4/16)\&quot; as L31\nL30 --&gt; L31\nL25 --&gt; L31\n\n&#39; 第 32 层 (RCM)，输入来自 7\nrectangle \&quot;32: RCM\\n(P3/8)\&quot; as L32\nL7 --&gt; L32\n\n&#39; 第 33 层 (DynamicInterpolationFusion)，输入来自 32,31\nrectangle \&quot;33: DynamicInterpolationFusion\\n(P3/8)\&quot; as L33\nL32 --&gt; L33\nL31 --&gt; L33\n\n&#39; 第 34 层 (FuseBlockMulti)，输入来自 33,24\nrectangle \&quot;34: FuseBlockMulti\\n(P3/8)\&quot; as L34\nL33 --&gt; L34\nL24 --&gt; L34\n\n&#39; 第 35 层 (Conv,stride=2)，输入来自 34\nrectangle \&quot;35: Conv(256,3,2)\\n(P4/16)\&quot; as L35\nL34 --&gt; L35\n\n&#39; 第 36 层 (Concat)，输入来自 35,31\nrectangle \&quot;36: Concat(dimension=1)\\n(P4/16)\&quot; as L36\nL35 --&gt; L36\nL31 --&gt; L36\n\n&#39; 第 37 层 (C2f_gConv(256,0.5))，输入来自 36\nrectangle \&quot;37: C2f_gConv(256,0.5)\\n(P4/16)\&quot; as L37\nL36 --&gt; L37\n\n&#39; 第 38 层 (Conv,stride=2)，输入来自 37\nrectangle \&quot;38: Conv(256,3,2)\\n(P5/32)\&quot; as L38\nL37 --&gt; L38\n\n&#39; 第 39 层 (Concat)，输入来自 38,28\nrectangle \&quot;39: Concat(dimension=1)\\n(P5/32)\&quot; as L39\nL38 --&gt; L39\nL28 --&gt; L39\n\n&#39; 第 40 层 (C2f_gConv(256,0.5))，输入来自 39\nrectangle \&quot;40: C2f_gConv(256,0.5)\\n(P5/32)\&quot; as L40\nL39 --&gt; L40\n\n&#39; 第 41 层 (RTDETRDecoder)，输入来自 34,37,40 -&gt; 最终检测\nrectangle \&quot;41: RTDETRDecoder(80,256,300,4,8,3)\\nDetect(P3,P4,P5)\&quot; as L41\nL34 --&gt; L41\nL37 --&gt; L41\nL40 --&gt; L41\n\n@enduml\n&quot;,&#xa;  &quot;format&quot;: &quot;svg&quot;&#xa;}" id="kjkoxI3LClrRZQgq75a3-1">
          <mxCell style="shape=image;noLabel=1;verticalAlign=top;aspect=fixed;imageAspect=0;image=data:image/svg+xml,PD94bWwgdmVyc2lvbj0iMS4wIiBlbmNvZGluZz0idXMtYXNjaWkiIHN0YW5kYWxvbmU9Im5vIj8+PHN2ZyB4bWxucz0iaHR0cDovL3d3dy53My5vcmcvMjAwMC9zdmciIHhtbG5zOnhsaW5rPSJodHRwOi8vd3d3LnczLm9yZy8xOTk5L3hsaW5rIiBjb250ZW50U3R5bGVUeXBlPSJ0ZXh0L2NzcyIgaGVpZ2h0PSIyOTI3cHgiIHByZXNlcnZlQXNwZWN0UmF0aW89Im5vbmUiIHN0eWxlPSJ3aWR0aDo3MDlweDtoZWlnaHQ6MjkyN3B4O2JhY2tncm91bmQ6I0ZGRkZGRjsiIHZlcnNpb249IjEuMSIgdmlld0JveD0iMCAwIDcwOSAyOTI3IiB3aWR0aD0iNzA5cHgiIHpvb21BbmRQYW49Im1hZ25pZnkiPjxkZWZzLz48Zz48IS0tZW50aXR5IEwwLS0+PGcgaWQ9ImVsZW1fTDAiPjxyZWN0IGZpbGw9IiNGMUYxRjEiIGhlaWdodD0iNDkuOTY4OCIgcng9IjIuNSIgcnk9IjIuNSIgc3R5bGU9InN0cm9rZTojMTgxODE4O3N0cm9rZS13aWR0aDowLjU7IiB3aWR0aD0iMTM1IiB4PSI0NzcuOTkiIHk9IjciLz48dGV4dCBmaWxsPSIjMDAwMDAwIiBmb250LWZhbWlseT0ic2Fucy1zZXJpZiIgZm9udC1zaXplPSIxNCIgbGVuZ3RoQWRqdXN0PSJzcGFjaW5nIiB0ZXh0TGVuZ3RoPSIxMTUiIHg9IjQ4Ny45OSIgeT0iMzAuMjM0NCI+MDogSEdTdGVtKDE2LDMyKTwvdGV4dD48dGV4dCBmaWxsPSIjMDAwMDAwIiBmb250LWZhbWlseT0ic2Fucy1zZXJpZiIgZm9udC1zaXplPSIxNCIgbGVuZ3RoQWRqdXN0PSJzcGFjaW5nIiB0ZXh0TGVuZ3RoPSI4NCIgeD0iNDg3Ljk5IiB5PSI0NS4yMTg4Ij5PdXRwdXQ6IFAyLzQ8L3RleHQ+PC9nPjwhLS1lbnRpdHkgTDEtLT48ZyBpZD0iZWxlbV9MMSI+PHJlY3QgZmlsbD0iI0YxRjFGMSIgaGVpZ2h0PSI0OS45Njg4IiByeD0iMi41IiByeT0iMi41IiBzdHlsZT0ic3Ryb2tlOiMxODE4MTg7c3Ryb2tlLXdpZHRoOjAuNTsiIHdpZHRoPSIxMzQiIHg9IjQyOS40OSIgeT0iOTciLz48dGV4dCBmaWxsPSIjMDAwMDAwIiBmb250LWZhbWlseT0ic2Fucy1zZXJpZiIgZm9udC1zaXplPSIxNCIgbGVuZ3RoQWRqdXN0PSJzcGFjaW5nIiB0ZXh0TGVuZ3RoPSIxMTQiIHg9IjQzOS40OSIgeT0iMTIwLjIzNDQiPjE6IEMyZl9nQ29udigzMik8L3RleHQ+PHRleHQgZmlsbD0iIzAwMDAwMCIgZm9udC1mYW1pbHk9InNhbnMtc2VyaWYiIGZvbnQtc2l6ZT0iMTQiIGxlbmd0aEFkanVzdD0ic3BhY2luZyIgdGV4dExlbmd0aD0iODQiIHg9IjQzOS40OSIgeT0iMTM1LjIxODgiPk91dHB1dDogUDIvNDwvdGV4dD48L2c+PCEtLWVudGl0eSBMMi0tPjxnIGlkPSJlbGVtX0wyIj48cmVjdCBmaWxsPSIjRjFGMUYxIiBoZWlnaHQ9IjQ5Ljk2ODgiIHJ4PSIyLjUiIHJ5PSIyLjUiIHN0eWxlPSJzdHJva2U6IzE4MTgxODtzdHJva2Utd2lkdGg6MC41OyIgd2lkdGg9IjEyNyIgeD0iNDMyLjk5IiB5PSIxODciLz48dGV4dCBmaWxsPSIjMDAwMDAwIiBmb250LWZhbWlseT0ic2Fucy1zZXJpZiIgZm9udC1zaXplPSIxNCIgbGVuZ3RoQWRqdXN0PSJzcGFjaW5nIiB0ZXh0TGVuZ3RoPSIxMDciIHg9IjQ0Mi45OSIgeT0iMjEwLjIzNDQiPjI6IENvbnYoNjQsMywyKTwvdGV4dD48dGV4dCBmaWxsPSIjMDAwMDAwIiBmb250LWZhbWlseT0ic2Fucy1zZXJpZiIgZm9udC1zaXplPSIxNCIgbGVuZ3RoQWRqdXN0PSJzcGFjaW5nIiB0ZXh0TGVuZ3RoPSI4NCIgeD0iNDQyLjk5IiB5PSIyMjUuMjE4OCI+T3V0cHV0OiBQMy84PC90ZXh0PjwvZz48IS0tZW50aXR5IEwzLS0+PGcgaWQ9ImVsZW1fTDMiPjxyZWN0IGZpbGw9IiNGMUYxRjEiIGhlaWdodD0iNDkuOTY4OCIgcng9IjIuNSIgcnk9IjIuNSIgc3R5bGU9InN0cm9rZTojMTgxODE4O3N0cm9rZS13aWR0aDowLjU7IiB3aWR0aD0iMTM0IiB4PSI0MjkuNDkiIHk9IjI3NyIvPjx0ZXh0IGZpbGw9IiMwMDAwMDAiIGZvbnQtZmFtaWx5PSJzYW5zLXNlcmlmIiBmb250LXNpemU9IjE0IiBsZW5ndGhBZGp1c3Q9InNwYWNpbmciIHRleHRMZW5ndGg9IjExNCIgeD0iNDM5LjQ5IiB5PSIzMDAuMjM0NCI+MzogQzJmX2dDb252KDY0KTwvdGV4dD48dGV4dCBmaWxsPSIjMDAwMDAwIiBmb250LWZhbWlseT0ic2Fucy1zZXJpZiIgZm9udC1zaXplPSIxNCIgbGVuZ3RoQWRqdXN0PSJzcGFjaW5nIiB0ZXh0TGVuZ3RoPSI4NCIgeD0iNDM5LjQ5IiB5PSIzMTUuMjE4OCI+T3V0cHV0OiBQMy84PC90ZXh0PjwvZz48IS0tZW50aXR5IEw0LS0+PGcgaWQ9ImVsZW1fTDQiPjxyZWN0IGZpbGw9IiNGMUYxRjEiIGhlaWdodD0iNDkuOTY4OCIgcng9IjIuNSIgcnk9IjIuNSIgc3R5bGU9InN0cm9rZTojMTgxODE4O3N0cm9rZS13aWR0aDowLjU7IiB3aWR0aD0iMTU1IiB4PSI1MTYuOTkiIHk9IjM2NyIvPjx0ZXh0IGZpbGw9IiMwMDAwMDAiIGZvbnQtZmFtaWx5PSJzYW5zLXNlcmlmIiBmb250LXNpemU9IjE0IiBsZW5ndGhBZGp1c3Q9InNwYWNpbmciIHRleHRMZW5ndGg9IjEzNSIgeD0iNTI2Ljk5IiB5PSIzOTAuMjM0NCI+NDogSEdCbG9jaygxNiwzMiwzKTwvdGV4dD48dGV4dCBmaWxsPSIjMDAwMDAwIiBmb250LWZhbWlseT0ic2Fucy1zZXJpZiIgZm9udC1zaXplPSIxNCIgbGVuZ3RoQWRqdXN0PSJzcGFjaW5nIiB0ZXh0TGVuZ3RoPSI4NCIgeD0iNTI2Ljk5IiB5PSI0MDUuMjE4OCI+T3V0cHV0OiBQMi80PC90ZXh0PjwvZz48IS0tZW50aXR5IEw1LS0+PGcgaWQ9ImVsZW1fTDUiPjxyZWN0IGZpbGw9IiNGMUYxRjEiIGhlaWdodD0iNDkuOTY4OCIgcng9IjIuNSIgcnk9IjIuNSIgc3R5bGU9InN0cm9rZTojMTgxODE4O3N0cm9rZS13aWR0aDowLjU7IiB3aWR0aD0iMTk3IiB4PSI1MDYuOTkiIHk9IjQ1NyIvPjx0ZXh0IGZpbGw9IiMwMDAwMDAiIGZvbnQtZmFtaWx5PSJzYW5zLXNlcmlmIiBmb250LXNpemU9IjE0IiBsZW5ndGhBZGp1c3Q9InNwYWNpbmciIHRleHRMZW5ndGg9IjE3NyIgeD0iNTE2Ljk5IiB5PSI0ODAuMjM0NCI+NTogRFdDb252KDY0LDMsMiwxLEZhbHNlKTwvdGV4dD48dGV4dCBmaWxsPSIjMDAwMDAwIiBmb250LWZhbWlseT0ic2Fucy1zZXJpZiIgZm9udC1zaXplPSIxNCIgbGVuZ3RoQWRqdXN0PSJzcGFjaW5nIiB0ZXh0TGVuZ3RoPSI4NCIgeD0iNTE2Ljk5IiB5PSI0OTUuMjE4OCI+T3V0cHV0OiBQMy84PC90ZXh0PjwvZz48IS0tZW50aXR5IEw2LS0+PGcgaWQ9ImVsZW1fTDYiPjxyZWN0IGZpbGw9IiNGMUYxRjEiIGhlaWdodD0iNDkuOTY4OCIgcng9IjIuNSIgcnk9IjIuNSIgc3R5bGU9InN0cm9rZTojMTgxODE4O3N0cm9rZS13aWR0aDowLjU7IiB3aWR0aD0iMTU1IiB4PSI1MTYuOTkiIHk9IjU0NyIvPjx0ZXh0IGZpbGw9IiMwMDAwMDAiIGZvbnQtZmFtaWx5PSJzYW5zLXNlcmlmIiBmb250LXNpemU9IjE0IiBsZW5ndGhBZGp1c3Q9InNwYWNpbmciIHRleHRMZW5ndGg9IjEzNSIgeD0iNTI2Ljk5IiB5PSI1NzAuMjM0NCI+NjogSEdCbG9jaygzMiw2NCwzKTwvdGV4dD48dGV4dCBmaWxsPSIjMDAwMDAwIiBmb250LWZhbWlseT0ic2Fucy1zZXJpZiIgZm9udC1zaXplPSIxNCIgbGVuZ3RoQWRqdXN0PSJzcGFjaW5nIiB0ZXh0TGVuZ3RoPSI4NCIgeD0iNTI2Ljk5IiB5PSI1ODUuMjE4OCI+T3V0cHV0OiBQMy84PC90ZXh0PjwvZz48IS0tZW50aXR5IEw3LS0+PGcgaWQ9ImVsZW1fTDciPjxyZWN0IGZpbGw9IiNGMUYxRjEiIGhlaWdodD0iNDkuOTY4OCIgcng9IjIuNSIgcnk9IjIuNSIgc3R5bGU9InN0cm9rZTojMTgxODE4O3N0cm9rZS13aWR0aDowLjU7IiB3aWR0aD0iMTc0IiB4PSI0NDIuNDkiIHk9IjYzNyIvPjx0ZXh0IGZpbGw9IiMwMDAwMDAiIGZvbnQtZmFtaWx5PSJzYW5zLXNlcmlmIiBmb250LXNpemU9IjE0IiBsZW5ndGhBZGp1c3Q9InNwYWNpbmciIHRleHRMZW5ndGg9IjE1NCIgeD0iNDUyLjQ5IiB5PSI2NjAuMjM0NCI+NzogTXVsdGlTY2FsZUdhdGVkQXR0bjwvdGV4dD48dGV4dCBmaWxsPSIjMDAwMDAwIiBmb250LWZhbWlseT0ic2Fucy1zZXJpZiIgZm9udC1zaXplPSIxNCIgbGVuZ3RoQWRqdXN0PSJzcGFjaW5nIiB0ZXh0TGVuZ3RoPSI4NCIgeD0iNDUyLjQ5IiB5PSI2NzUuMjE4OCI+T3V0cHV0OiBQMy84PC90ZXh0PjwvZz48IS0tZW50aXR5IEw4LS0+PGcgaWQ9ImVsZW1fTDgiPjxyZWN0IGZpbGw9IiNGMUYxRjEiIGhlaWdodD0iNDkuOTY4OCIgcng9IjIuNSIgcnk9IjIuNSIgc3R5bGU9InN0cm9rZTojMTgxODE4O3N0cm9rZS13aWR0aDowLjU7IiB3aWR0aD0iMTM0IiB4PSI0MTMuNDkiIHk9IjcyNyIvPjx0ZXh0IGZpbGw9IiMwMDAwMDAiIGZvbnQtZmFtaWx5PSJzYW5zLXNlcmlmIiBmb250LXNpemU9IjE0IiBsZW5ndGhBZGp1c3Q9InNwYWNpbmciIHRleHRMZW5ndGg9IjExNCIgeD0iNDIzLjQ5IiB5PSI3NTAuMjM0NCI+ODogQ29udigxMjgsMywyKTwvdGV4dD48dGV4dCBmaWxsPSIjMDAwMDAwIiBmb250LWZhbWlseT0ic2Fucy1zZXJpZiIgZm9udC1zaXplPSIxNCIgbGVuZ3RoQWRqdXN0PSJzcGFjaW5nIiB0ZXh0TGVuZ3RoPSI5MSIgeD0iNDIzLjQ5IiB5PSI3NjUuMjE4OCI+T3V0cHV0OiBQNC8xNjwvdGV4dD48L2c+PCEtLWVudGl0eSBMOS0tPjxnIGlkPSJlbGVtX0w5Ij48cmVjdCBmaWxsPSIjRjFGMUYxIiBoZWlnaHQ9IjQ5Ljk2ODgiIHJ4PSIyLjUiIHJ5PSIyLjUiIHN0eWxlPSJzdHJva2U6IzE4MTgxODtzdHJva2Utd2lkdGg6MC41OyIgd2lkdGg9IjE0MSIgeD0iNDA2Ljk5IiB5PSI5OTciLz48dGV4dCBmaWxsPSIjMDAwMDAwIiBmb250LWZhbWlseT0ic2Fucy1zZXJpZiIgZm9udC1zaXplPSIxNCIgbGVuZ3RoQWRqdXN0PSJzcGFjaW5nIiB0ZXh0TGVuZ3RoPSIxMjEiIHg9IjQxNi45OSIgeT0iMTAyMC4yMzQ0Ij45OiBDMmZfZ0NvbnYoMTI4KTwvdGV4dD48dGV4dCBmaWxsPSIjMDAwMDAwIiBmb250LWZhbWlseT0ic2Fucy1zZXJpZiIgZm9udC1zaXplPSIxNCIgbGVuZ3RoQWRqdXN0PSJzcGFjaW5nIiB0ZXh0TGVuZ3RoPSI5MSIgeD0iNDE2Ljk5IiB5PSIxMDM1LjIxODgiPk91dHB1dDogUDQvMTY8L3RleHQ+PC9nPjwhLS1lbnRpdHkgTDEwLS0+PGcgaWQ9ImVsZW1fTDEwIj48cmVjdCBmaWxsPSIjRjFGMUYxIiBoZWlnaHQ9IjQ5Ljk2ODgiIHJ4PSIyLjUiIHJ5PSIyLjUiIHN0eWxlPSJzdHJva2U6IzE4MTgxODtzdHJva2Utd2lkdGg6MC41OyIgd2lkdGg9IjIxMSIgeD0iMTc4Ljk5IiB5PSI3MjciLz48dGV4dCBmaWxsPSIjMDAwMDAwIiBmb250LWZhbWlseT0ic2Fucy1zZXJpZiIgZm9udC1zaXplPSIxNCIgbGVuZ3RoQWRqdXN0PSJzcGFjaW5nIiB0ZXh0TGVuZ3RoPSIxOTEiIHg9IjE4OC45OSIgeT0iNzUwLjIzNDQiPjEwOiBEV0NvbnYoMTI4LDMsMiwxLEZhbHNlKTwvdGV4dD48dGV4dCBmaWxsPSIjMDAwMDAwIiBmb250LWZhbWlseT0ic2Fucy1zZXJpZiIgZm9udC1zaXplPSIxNCIgbGVuZ3RoQWRqdXN0PSJzcGFjaW5nIiB0ZXh0TGVuZ3RoPSI5MSIgeD0iMTg4Ljk5IiB5PSI3NjUuMjE4OCI+T3V0cHV0OiBQNC8xNjwvdGV4dD48L2c+PCEtLWVudGl0eSBMMTEtLT48ZyBpZD0iZWxlbV9MMTEiPjxyZWN0IGZpbGw9IiNGMUYxRjEiIGhlaWdodD0iNDkuOTY4OCIgcng9IjIuNSIgcnk9IjIuNSIgc3R5bGU9InN0cm9rZTojMTgxODE4O3N0cm9rZS13aWR0aDowLjU7IiB3aWR0aD0iMjQ2IiB4PSIxNTkuNDkiIHk9IjgxNyIvPjx0ZXh0IGZpbGw9IiMwMDAwMDAiIGZvbnQtZmFtaWx5PSJzYW5zLXNlcmlmIiBmb250LXNpemU9IjE0IiBsZW5ndGhBZGp1c3Q9InNwYWNpbmciIHRleHRMZW5ndGg9IjIyNiIgeD0iMTY5LjQ5IiB5PSI4NDAuMjM0NCI+MTE6IEhHQmxvY2soNjQsMTI4LDUsVHJ1ZSxGYWxzZSk8L3RleHQ+PHRleHQgZmlsbD0iIzAwMDAwMCIgZm9udC1mYW1pbHk9InNhbnMtc2VyaWYiIGZvbnQtc2l6ZT0iMTQiIGxlbmd0aEFkanVzdD0ic3BhY2luZyIgdGV4dExlbmd0aD0iOTEiIHg9IjE2OS40OSIgeT0iODU1LjIxODgiPk91dHB1dDogUDQvMTY8L3RleHQ+PC9nPjwhLS1lbnRpdHkgTDEyLS0+PGcgaWQ9ImVsZW1fTDEyIj48cmVjdCBmaWxsPSIjRjFGMUYxIiBoZWlnaHQ9IjQ5Ljk2ODgiIHJ4PSIyLjUiIHJ5PSIyLjUiIHN0eWxlPSJzdHJva2U6IzE4MTgxODtzdHJva2Utd2lkdGg6MC41OyIgd2lkdGg9IjIzOSIgeD0iMTUyLjk5IiB5PSI5MDciLz48dGV4dCBmaWxsPSIjMDAwMDAwIiBmb250LWZhbWlseT0ic2Fucy1zZXJpZiIgZm9udC1zaXplPSIxNCIgbGVuZ3RoQWRqdXN0PSJzcGFjaW5nIiB0ZXh0TGVuZ3RoPSIyMTkiIHg9IjE2Mi45OSIgeT0iOTMwLjIzNDQiPjEyOiBIR0Jsb2NrKDY0LDEyOCw1LFRydWUsVHJ1ZSk8L3RleHQ+PHRleHQgZmlsbD0iIzAwMDAwMCIgZm9udC1mYW1pbHk9InNhbnMtc2VyaWYiIGZvbnQtc2l6ZT0iMTQiIGxlbmd0aEFkanVzdD0ic3BhY2luZyIgdGV4dExlbmd0aD0iOTEiIHg9IjE2Mi45OSIgeT0iOTQ1LjIxODgiPk91dHB1dDogUDQvMTY8L3RleHQ+PC9nPjwhLS1lbnRpdHkgTDEzLS0+PGcgaWQ9ImVsZW1fTDEzIj48cmVjdCBmaWxsPSIjRjFGMUYxIiBoZWlnaHQ9IjQ5Ljk2ODgiIHJ4PSIyLjUiIHJ5PSIyLjUiIHN0eWxlPSJzdHJva2U6IzE4MTgxODtzdHJva2Utd2lkdGg6MC41OyIgd2lkdGg9IjIzOSIgeD0iMTQ3Ljk5IiB5PSI5OTciLz48dGV4dCBmaWxsPSIjMDAwMDAwIiBmb250LWZhbWlseT0ic2Fucy1zZXJpZiIgZm9udC1zaXplPSIxNCIgbGVuZ3RoQWRqdXN0PSJzcGFjaW5nIiB0ZXh0TGVuZ3RoPSIyMTkiIHg9IjE1Ny45OSIgeT0iMTAyMC4yMzQ0Ij4xMzogSEdCbG9jayg2NCwxMjgsNSxUcnVlLFRydWUpPC90ZXh0Pjx0ZXh0IGZpbGw9IiMwMDAwMDAiIGZvbnQtZmFtaWx5PSJzYW5zLXNlcmlmIiBmb250LXNpemU9IjE0IiBsZW5ndGhBZGp1c3Q9InNwYWNpbmciIHRleHRMZW5ndGg9IjkxIiB4PSIxNTcuOTkiIHk9IjEwMzUuMjE4OCI+T3V0cHV0OiBQNC8xNjwvdGV4dD48L2c+PCEtLWVudGl0eSBMMTQtLT48ZyBpZD0iZWxlbV9MMTQiPjxyZWN0IGZpbGw9IiNGMUYxRjEiIGhlaWdodD0iNDkuOTY4OCIgcng9IjIuNSIgcnk9IjIuNSIgc3R5bGU9InN0cm9rZTojMTgxODE4O3N0cm9rZS13aWR0aDowLjU7IiB3aWR0aD0iMTgxIiB4PSIyNTguOTkiIHk9IjEwODciLz48dGV4dCBmaWxsPSIjMDAwMDAwIiBmb250LWZhbWlseT0ic2Fucy1zZXJpZiIgZm9udC1zaXplPSIxNCIgbGVuZ3RoQWRqdXN0PSJzcGFjaW5nIiB0ZXh0TGVuZ3RoPSIxNjEiIHg9IjI2OC45OSIgeT0iMTExMC4yMzQ0Ij4xNDogTXVsdGlTY2FsZUdhdGVkQXR0bjwvdGV4dD48dGV4dCBmaWxsPSIjMDAwMDAwIiBmb250LWZhbWlseT0ic2Fucy1zZXJpZiIgZm9udC1zaXplPSIxNCIgbGVuZ3RoQWRqdXN0PSJzcGFjaW5nIiB0ZXh0TGVuZ3RoPSI5MSIgeD0iMjY4Ljk5IiB5PSIxMTI1LjIxODgiPk91dHB1dDogUDQvMTY8L3RleHQ+PC9nPjwhLS1lbnRpdHkgTDE1LS0+PGcgaWQ9ImVsZW1fTDE1Ij48cmVjdCBmaWxsPSIjRjFGMUYxIiBoZWlnaHQ9IjQ5Ljk2ODgiIHJ4PSIyLjUiIHJ5PSIyLjUiIHN0eWxlPSJzdHJva2U6IzE4MTgxODtzdHJva2Utd2lkdGg6MC41OyIgd2lkdGg9IjE0MSIgeD0iMzE0Ljk5IiB5PSIxMTc3Ii8+PHRleHQgZmlsbD0iIzAwMDAwMCIgZm9udC1mYW1pbHk9InNhbnMtc2VyaWYiIGZvbnQtc2l6ZT0iMTQiIGxlbmd0aEFkanVzdD0ic3BhY2luZyIgdGV4dExlbmd0aD0iMTIxIiB4PSIzMjQuOTkiIHk9IjEyMDAuMjM0NCI+MTU6IENvbnYoMjU2LDMsMik8L3RleHQ+PHRleHQgZmlsbD0iIzAwMDAwMCIgZm9udC1mYW1pbHk9InNhbnMtc2VyaWYiIGZvbnQtc2l6ZT0iMTQiIGxlbmd0aEFkanVzdD0ic3BhY2luZyIgdGV4dExlbmd0aD0iOTEiIHg9IjMyNC45OSIgeT0iMTIxNS4yMTg4Ij5PdXRwdXQ6IFA1LzMyPC90ZXh0PjwvZz48IS0tZW50aXR5IEwxNi0tPjxnIGlkPSJlbGVtX0wxNiI+PHJlY3QgZmlsbD0iI0YxRjFGMSIgaGVpZ2h0PSI0OS45Njg4IiByeD0iMi41IiByeT0iMi41IiBzdHlsZT0ic3Ryb2tlOiMxODE4MTg7c3Ryb2tlLXdpZHRoOjAuNTsiIHdpZHRoPSIxNDgiIHg9IjMxNy40OSIgeT0iMTI2NyIvPjx0ZXh0IGZpbGw9IiMwMDAwMDAiIGZvbnQtZmFtaWx5PSJzYW5zLXNlcmlmIiBmb250LXNpemU9IjE0IiBsZW5ndGhBZGp1c3Q9InNwYWNpbmciIHRleHRMZW5ndGg9IjEyOCIgeD0iMzI3LjQ5IiB5PSIxMjkwLjIzNDQiPjE2OiBDMmZfZ0NvbnYoMjU2KTwvdGV4dD48dGV4dCBmaWxsPSIjMDAwMDAwIiBmb250LWZhbWlseT0ic2Fucy1zZXJpZiIgZm9udC1zaXplPSIxNCIgbGVuZ3RoQWRqdXN0PSJzcGFjaW5nIiB0ZXh0TGVuZ3RoPSI5MSIgeD0iMzI3LjQ5IiB5PSIxMzA1LjIxODgiPk91dHB1dDogUDUvMzI8L3RleHQ+PC9nPjwhLS1lbnRpdHkgTDE3LS0+PGcgaWQ9ImVsZW1fTDE3Ij48cmVjdCBmaWxsPSIjRjFGMUYxIiBoZWlnaHQ9IjQ5Ljk2ODgiIHJ4PSIyLjUiIHJ5PSIyLjUiIHN0eWxlPSJzdHJva2U6IzE4MTgxODtzdHJva2Utd2lkdGg6MC41OyIgd2lkdGg9IjIxMSIgeD0iNzEuOTkiIHk9IjExNzciLz48dGV4dCBmaWxsPSIjMDAwMDAwIiBmb250LWZhbWlseT0ic2Fucy1zZXJpZiIgZm9udC1zaXplPSIxNCIgbGVuZ3RoQWRqdXN0PSJzcGFjaW5nIiB0ZXh0TGVuZ3RoPSIxOTEiIHg9IjgxLjk5IiB5PSIxMjAwLjIzNDQiPjE3OiBEV0NvbnYoMjU2LDMsMiwxLEZhbHNlKTwvdGV4dD48dGV4dCBmaWxsPSIjMDAwMDAwIiBmb250LWZhbWlseT0ic2Fucy1zZXJpZiIgZm9udC1zaXplPSIxNCIgbGVuZ3RoQWRqdXN0PSJzcGFjaW5nIiB0ZXh0TGVuZ3RoPSI5MSIgeD0iODEuOTkiIHk9IjEyMTUuMjE4OCI+T3V0cHV0OiBQNS8zMjwvdGV4dD48L2c+PCEtLWVudGl0eSBMMTgtLT48ZyBpZD0iZWxlbV9MMTgiPjxyZWN0IGZpbGw9IiNGMUYxRjEiIGhlaWdodD0iNDkuOTY4OCIgcng9IjIuNSIgcnk9IjIuNSIgc3R5bGU9InN0cm9rZTojMTgxODE4O3N0cm9rZS13aWR0aDowLjU7IiB3aWR0aD0iMjUzIiB4PSI0My45OSIgeT0iMTI2NyIvPjx0ZXh0IGZpbGw9IiMwMDAwMDAiIGZvbnQtZmFtaWx5PSJzYW5zLXNlcmlmIiBmb250LXNpemU9IjE0IiBsZW5ndGhBZGp1c3Q9InNwYWNpbmciIHRleHRMZW5ndGg9IjIzMyIgeD0iNTMuOTkiIHk9IjEyOTAuMjM0NCI+MTg6IEhHQmxvY2soMTI4LDI1Niw1LFRydWUsRmFsc2UpPC90ZXh0Pjx0ZXh0IGZpbGw9IiMwMDAwMDAiIGZvbnQtZmFtaWx5PSJzYW5zLXNlcmlmIiBmb250LXNpemU9IjE0IiBsZW5ndGhBZGp1c3Q9InNwYWNpbmciIHRleHRMZW5ndGg9IjkxIiB4PSI1My45OSIgeT0iMTMwNS4yMTg4Ij5PdXRwdXQ6IFA1LzMyPC90ZXh0PjwvZz48IS0tZW50aXR5IEwxOS0tPjxnIGlkPSJlbGVtX0wxOSI+PHJlY3QgZmlsbD0iI0YxRjFGMSIgaGVpZ2h0PSI0OS45Njg4IiByeD0iMi41IiByeT0iMi41IiBzdHlsZT0ic3Ryb2tlOiMxODE4MTg7c3Ryb2tlLXdpZHRoOjAuNTsiIHdpZHRoPSIxODEiIHg9IjI3My45OSIgeT0iMTM1NyIvPjx0ZXh0IGZpbGw9IiMwMDAwMDAiIGZvbnQtZmFtaWx5PSJzYW5zLXNlcmlmIiBmb250LXNpemU9IjE0IiBsZW5ndGhBZGp1c3Q9InNwYWNpbmciIHRleHRMZW5ndGg9IjE2MSIgeD0iMjgzLjk5IiB5PSIxMzgwLjIzNDQiPjE5OiBNdWx0aVNjYWxlR2F0ZWRBdHRuPC90ZXh0Pjx0ZXh0IGZpbGw9IiMwMDAwMDAiIGZvbnQtZmFtaWx5PSJzYW5zLXNlcmlmIiBmb250LXNpemU9IjE0IiBsZW5ndGhBZGp1c3Q9InNwYWNpbmciIHRleHRMZW5ndGg9IjkxIiB4PSIyODMuOTkiIHk9IjEzOTUuMjE4OCI+T3V0cHV0OiBQNS8zMjwvdGV4dD48L2c+PCEtLWVudGl0eSBMMjAtLT48ZyBpZD0iZWxlbV9MMjAiPjxyZWN0IGZpbGw9IiNGMUYxRjEiIGhlaWdodD0iNDkuOTY4OCIgcng9IjIuNSIgcnk9IjIuNSIgc3R5bGU9InN0cm9rZTojMTgxODE4O3N0cm9rZS13aWR0aDowLjU7IiB3aWR0aD0iMTQxIiB4PSIyOTMuOTkiIHk9IjE0NDciLz48dGV4dCBmaWxsPSIjMDAwMDAwIiBmb250LWZhbWlseT0ic2Fucy1zZXJpZiIgZm9udC1zaXplPSIxNCIgbGVuZ3RoQWRqdXN0PSJzcGFjaW5nIiB0ZXh0TGVuZ3RoPSIxMjEiIHg9IjMwMy45OSIgeT0iMTQ3MC4yMzQ0Ij4yMDogQ29udigyNTYsMSwxKTwvdGV4dD48dGV4dCBmaWxsPSIjMDAwMDAwIiBmb250LWZhbWlseT0ic2Fucy1zZXJpZiIgZm9udC1zaXplPSIxNCIgbGVuZ3RoQWRqdXN0PSJzcGFjaW5nIiB0ZXh0TGVuZ3RoPSIxMDAiIHg9IjMwMy45OSIgeT0iMTQ4NS4yMTg4Ij4oaW5wdXRfcHJvai4yKTwvdGV4dD48L2c+PCEtLWVudGl0eSBMMjEtLT48ZyBpZD0iZWxlbV9MMjEiPjxyZWN0IGZpbGw9IiNGMUYxRjEiIGhlaWdodD0iMzQuOTg0NCIgcng9IjIuNSIgcnk9IjIuNSIgc3R5bGU9InN0cm9rZTojMTgxODE4O3N0cm9rZS13aWR0aDowLjU7IiB3aWR0aD0iMTM0IiB4PSIyOTcuNDkiIHk9IjE1MzciLz48dGV4dCBmaWxsPSIjMDAwMDAwIiBmb250LWZhbWlseT0ic2Fucy1zZXJpZiIgZm9udC1zaXplPSIxNCIgbGVuZ3RoQWRqdXN0PSJzcGFjaW5nIiB0ZXh0TGVuZ3RoPSIxMTQiIHg9IjMwNy40OSIgeT0iMTU2MC4yMzQ0Ij4yMTogQUlGSSgxMDI0LDgpPC90ZXh0PjwvZz48IS0tZW50aXR5IEwyMi0tPjxnIGlkPSJlbGVtX0wyMiI+PHJlY3QgZmlsbD0iI0YxRjFGMSIgaGVpZ2h0PSI0OS45Njg4IiByeD0iMi41IiByeT0iMi41IiBzdHlsZT0ic3Ryb2tlOiMxODE4MTg7c3Ryb2tlLXdpZHRoOjAuNTsiIHdpZHRoPSIxNjkiIHg9IjI3OS45OSIgeT0iMTYxMiIvPjx0ZXh0IGZpbGw9IiMwMDAwMDAiIGZvbnQtZmFtaWx5PSJzYW5zLXNlcmlmIiBmb250LXNpemU9IjE0IiBsZW5ndGhBZGp1c3Q9InNwYWNpbmciIHRleHRMZW5ndGg9IjEyMSIgeD0iMjg5Ljk5IiB5PSIxNjM1LjIzNDQiPjIyOiBDb252KDI1NiwxLDEpPC90ZXh0Pjx0ZXh0IGZpbGw9IiMwMDAwMDAiIGZvbnQtZmFtaWx5PSJzYW5zLXNlcmlmIiBmb250LXNpemU9IjE0IiBsZW5ndGhBZGp1c3Q9InNwYWNpbmciIHRleHRMZW5ndGg9IjE0OSIgeD0iMjg5Ljk5IiB5PSIxNjUwLjIxODgiPihZNSwgbGF0ZXJhbF9jb252cy4wKTwvdGV4dD48L2c+PCEtLWVudGl0eSBMMjMtLT48ZyBpZD0iZWxlbV9MMjMiPjxyZWN0IGZpbGw9IiNGMUYxRjEiIGhlaWdodD0iNDkuOTY4OCIgcng9IjIuNSIgcnk9IjIuNSIgc3R5bGU9InN0cm9rZTojMTgxODE4O3N0cm9rZS13aWR0aDowLjU7IiB3aWR0aD0iMjE3IiB4PSIzNzAuOTkiIHk9IjE3MDIiLz48dGV4dCBmaWxsPSIjMDAwMDAwIiBmb250LWZhbWlseT0ic2Fucy1zZXJpZiIgZm9udC1zaXplPSIxNCIgbGVuZ3RoQWRqdXN0PSJzcGFjaW5nIiB0ZXh0TGVuZ3RoPSIxOTciIHg9IjM4MC45OSIgeT0iMTcyNS4yMzQ0Ij4yMzogUHlyYW1pZENvbnRleHRFeHRyYWN0aW9uPC90ZXh0Pjx0ZXh0IGZpbGw9IiMwMDAwMDAiIGZvbnQtZmFtaWx5PSJzYW5zLXNlcmlmIiBmb250LXNpemU9IjE0IiBsZW5ndGhBZGp1c3Q9InNwYWNpbmciIHRleHRMZW5ndGg9IjE1MCIgeD0iMzgwLjk5IiB5PSIxNzQwLjIxODgiPihmcm9tIGxheWVycyA3LDE0LDIyKTwvdGV4dD48L2c+PCEtLWVudGl0eSBMMjQtLT48ZyBpZD0iZWxlbV9MMjQiPjxyZWN0IGZpbGw9IiNGMUYxRjEiIGhlaWdodD0iNDkuOTY4OCIgcng9IjIuNSIgcnk9IjIuNSIgc3R5bGU9InN0cm9rZTojMTgxODE4O3N0cm9rZS13aWR0aDowLjU7IiB3aWR0aD0iMTY5IiB4PSI1MDAuOTkiIHk9IjE4ODIiLz48dGV4dCBmaWxsPSIjMDAwMDAwIiBmb250LWZhbWlseT0ic2Fucy1zZXJpZiIgZm9udC1zaXplPSIxNCIgbGVuZ3RoQWRqdXN0PSJzcGFjaW5nIiB0ZXh0TGVuZ3RoPSIxNDkiIHg9IjUxMC45OSIgeT0iMTkwNS4yMzQ0Ij4yNDogR2V0SW5kZXhPdXRwdXQoMCk8L3RleHQ+PHRleHQgZmlsbD0iIzAwMDAwMCIgZm9udC1mYW1pbHk9InNhbnMtc2VyaWYiIGZvbnQtc2l6ZT0iMTQiIGxlbmd0aEFkanVzdD0ic3BhY2luZyIgdGV4dExlbmd0aD0iMjgiIHg9IjUxMC45OSIgeT0iMTkyMC4yMTg4Ij5QMy84PC90ZXh0PjwvZz48IS0tZW50aXR5IEwyNS0tPjxnIGlkPSJlbGVtX0wyNSI+PHJlY3QgZmlsbD0iI0YxRjFGMSIgaGVpZ2h0PSI0OS45Njg4IiByeD0iMi41IiByeT0iMi41IiBzdHlsZT0ic3Ryb2tlOiMxODE4MTg7c3Ryb2tlLXdpZHRoOjAuNTsiIHdpZHRoPSIxNjkiIHg9IjM4NS45OSIgeT0iMTk3MiIvPjx0ZXh0IGZpbGw9IiMwMDAwMDAiIGZvbnQtZmFtaWx5PSJzYW5zLXNlcmlmIiBmb250LXNpemU9IjE0IiBsZW5ndGhBZGp1c3Q9InNwYWNpbmciIHRleHRMZW5ndGg9IjE0OSIgeD0iMzk1Ljk5IiB5PSIxOTk1LjIzNDQiPjI1OiBHZXRJbmRleE91dHB1dCgxKTwvdGV4dD48dGV4dCBmaWxsPSIjMDAwMDAwIiBmb250LWZhbWlseT0ic2Fucy1zZXJpZiIgZm9udC1zaXplPSIxNCIgbGVuZ3RoQWRqdXN0PSJzcGFjaW5nIiB0ZXh0TGVuZ3RoPSIzNSIgeD0iMzk1Ljk5IiB5PSIyMDEwLjIxODgiPlA0LzE2PC90ZXh0PjwvZz48IS0tZW50aXR5IEwyNi0tPjxnIGlkPSJlbGVtX0wyNiI+PHJlY3QgZmlsbD0iI0YxRjFGMSIgaGVpZ2h0PSI0OS45Njg4IiByeD0iMi41IiByeT0iMi41IiBzdHlsZT0ic3Ryb2tlOiMxODE4MTg7c3Ryb2tlLXdpZHRoOjAuNTsiIHdpZHRoPSIxNjkiIHg9IjI3MC45OSIgeT0iMTc5MiIvPjx0ZXh0IGZpbGw9IiMwMDAwMDAiIGZvbnQtZmFtaWx5PSJzYW5zLXNlcmlmIiBmb250LXNpemU9IjE0IiBsZW5ndGhBZGp1c3Q9InNwYWNpbmciIHRleHRMZW5ndGg9IjE0OSIgeD0iMjgwLjk5IiB5PSIxODE1LjIzNDQiPjI2OiBHZXRJbmRleE91dHB1dCgyKTwvdGV4dD48dGV4dCBmaWxsPSIjMDAwMDAwIiBmb250LWZhbWlseT0ic2Fucy1zZXJpZiIgZm9udC1zaXplPSIxNCIgbGVuZ3RoQWRqdXN0PSJzcGFjaW5nIiB0ZXh0TGVuZ3RoPSIzNSIgeD0iMjgwLjk5IiB5PSIxODMwLjIxODgiPlA1LzMyPC90ZXh0PjwvZz48IS0tZW50aXR5IEwyNy0tPjxnIGlkPSJlbGVtX0wyNyI+PHJlY3QgZmlsbD0iI0YxRjFGMSIgaGVpZ2h0PSI0OS45Njg4IiByeD0iMi41IiByeT0iMi41IiBzdHlsZT0ic3Ryb2tlOiMxODE4MTg7c3Ryb2tlLXdpZHRoOjAuNTsiIHdpZHRoPSI3MSIgeD0iMjQ2Ljk5IiB5PSIxNzAyIi8+PHRleHQgZmlsbD0iIzAwMDAwMCIgZm9udC1mYW1pbHk9InNhbnMtc2VyaWYiIGZvbnQtc2l6ZT0iMTQiIGxlbmd0aEFkanVzdD0ic3BhY2luZyIgdGV4dExlbmd0aD0iNDkiIHg9IjI1Ni45OSIgeT0iMTcyNS4yMzQ0Ij4yNzogUkNNPC90ZXh0Pjx0ZXh0IGZpbGw9IiMwMDAwMDAiIGZvbnQtZmFtaWx5PSJzYW5zLXNlcmlmIiBmb250LXNpemU9IjE0IiBsZW5ndGhBZGp1c3Q9InNwYWNpbmciIHRleHRMZW5ndGg9IjUxIiB4PSIyNTYuOTkiIHk9IjE3NDAuMjE4OCI+KFA1LzMyKTwvdGV4dD48L2c+PCEtLWVudGl0eSBMMjgtLT48ZyBpZD0iZWxlbV9MMjgiPjxyZWN0IGZpbGw9IiNGMUYxRjEiIGhlaWdodD0iNDkuOTY4OCIgcng9IjIuNSIgcnk9IjIuNSIgc3R5bGU9InN0cm9rZTojMTgxODE4O3N0cm9rZS13aWR0aDowLjU7IiB3aWR0aD0iMTQ2IiB4PSIxNzIuNDkiIHk9IjE4ODIiLz48dGV4dCBmaWxsPSIjMDAwMDAwIiBmb250LWZhbWlseT0ic2Fucy1zZXJpZiIgZm9udC1zaXplPSIxNCIgbGVuZ3RoQWRqdXN0PSJzcGFjaW5nIiB0ZXh0TGVuZ3RoPSIxMjYiIHg9IjE4Mi40OSIgeT0iMTkwNS4yMzQ0Ij4yODogRnVzZUJsb2NrTXVsdGk8L3RleHQ+PHRleHQgZmlsbD0iIzAwMDAwMCIgZm9udC1mYW1pbHk9InNhbnMtc2VyaWYiIGZvbnQtc2l6ZT0iMTQiIGxlbmd0aEFkanVzdD0ic3BhY2luZyIgdGV4dExlbmd0aD0iNTEiIHg9IjE4Mi40OSIgeT0iMTkyMC4yMTg4Ij4oUDUvMzIpPC90ZXh0PjwvZz48IS0tZW50aXR5IEwyOS0tPjxnIGlkPSJlbGVtX0wyOSI+PHJlY3QgZmlsbD0iI0YxRjFGMSIgaGVpZ2h0PSI0OS45Njg4IiByeD0iMi41IiByeT0iMi41IiBzdHlsZT0ic3Ryb2tlOiMxODE4MTg7c3Ryb2tlLXdpZHRoOjAuNTsiIHdpZHRoPSI3MSIgeD0iNzcuOTkiIHk9IjEzNTciLz48dGV4dCBmaWxsPSIjMDAwMDAwIiBmb250LWZhbWlseT0ic2Fucy1zZXJpZiIgZm9udC1zaXplPSIxNCIgbGVuZ3RoQWRqdXN0PSJzcGFjaW5nIiB0ZXh0TGVuZ3RoPSI0OSIgeD0iODcuOTkiIHk9IjEzODAuMjM0NCI+Mjk6IFJDTTwvdGV4dD48dGV4dCBmaWxsPSIjMDAwMDAwIiBmb250LWZhbWlseT0ic2Fucy1zZXJpZiIgZm9udC1zaXplPSIxNCIgbGVuZ3RoQWRqdXN0PSJzcGFjaW5nIiB0ZXh0TGVuZ3RoPSI1MSIgeD0iODcuOTkiIHk9IjEzOTUuMjE4OCI+KFA0LzE2KTwvdGV4dD48L2c+PCEtLWVudGl0eSBMMzAtLT48ZyBpZD0iZWxlbV9MMzAiPjxyZWN0IGZpbGw9IiNGMUYxRjEiIGhlaWdodD0iNDkuOTY4OCIgcng9IjIuNSIgcnk9IjIuNSIgc3R5bGU9InN0cm9rZTojMTgxODE4O3N0cm9rZS13aWR0aDowLjU7IiB3aWR0aD0iMjMxIiB4PSIxMzQuOTkiIHk9IjE5NzIiLz48dGV4dCBmaWxsPSIjMDAwMDAwIiBmb250LWZhbWlseT0ic2Fucy1zZXJpZiIgZm9udC1zaXplPSIxNCIgbGVuZ3RoQWRqdXN0PSJzcGFjaW5nIiB0ZXh0TGVuZ3RoPSIyMTEiIHg9IjE0NC45OSIgeT0iMTk5NS4yMzQ0Ij4zMDogRHluYW1pY0ludGVycG9sYXRpb25GdXNpb248L3RleHQ+PHRleHQgZmlsbD0iIzAwMDAwMCIgZm9udC1mYW1pbHk9InNhbnMtc2VyaWYiIGZvbnQtc2l6ZT0iMTQiIGxlbmd0aEFkanVzdD0ic3BhY2luZyIgdGV4dExlbmd0aD0iNTEiIHg9IjE0NC45OSIgeT0iMjAxMC4yMTg4Ij4oUDQvMTYpPC90ZXh0PjwvZz48IS0tZW50aXR5IEwzMS0tPjxnIGlkPSJlbGVtX0wzMSI+PHJlY3QgZmlsbD0iI0YxRjFGMSIgaGVpZ2h0PSI0OS45Njg4IiByeD0iMi41IiByeT0iMi41IiBzdHlsZT0ic3Ryb2tlOiMxODE4MTg7c3Ryb2tlLXdpZHRoOjAuNTsiIHdpZHRoPSIxNDYiIHg9IjI2OS40OSIgeT0iMjA2MiIvPjx0ZXh0IGZpbGw9IiMwMDAwMDAiIGZvbnQtZmFtaWx5PSJzYW5zLXNlcmlmIiBmb250LXNpemU9IjE0IiBsZW5ndGhBZGp1c3Q9InNwYWNpbmciIHRleHRMZW5ndGg9IjEyNiIgeD0iMjc5LjQ5IiB5PSIyMDg1LjIzNDQiPjMxOiBGdXNlQmxvY2tNdWx0aTwvdGV4dD48dGV4dCBmaWxsPSIjMDAwMDAwIiBmb250LWZhbWlseT0ic2Fucy1zZXJpZiIgZm9udC1zaXplPSIxNCIgbGVuZ3RoQWRqdXN0PSJzcGFjaW5nIiB0ZXh0TGVuZ3RoPSI1MSIgeD0iMjc5LjQ5IiB5PSIyMTAwLjIxODgiPihQNC8xNik8L3RleHQ+PC9nPjwhLS1lbnRpdHkgTDMyLS0+PGcgaWQ9ImVsZW1fTDMyIj48cmVjdCBmaWxsPSIjRjFGMUYxIiBoZWlnaHQ9IjQ5Ljk2ODgiIHJ4PSIyLjUiIHJ5PSIyLjUiIHN0eWxlPSJzdHJva2U6IzE4MTgxODtzdHJva2Utd2lkdGg6MC41OyIgd2lkdGg9IjY5IiB4PSI2MjguOTkiIHk9IjkwNyIvPjx0ZXh0IGZpbGw9IiMwMDAwMDAiIGZvbnQtZmFtaWx5PSJzYW5zLXNlcmlmIiBmb250LXNpemU9IjE0IiBsZW5ndGhBZGp1c3Q9InNwYWNpbmciIHRleHRMZW5ndGg9IjQ5IiB4PSI2MzguOTkiIHk9IjkzMC4yMzQ0Ij4zMjogUkNNPC90ZXh0Pjx0ZXh0IGZpbGw9IiMwMDAwMDAiIGZvbnQtZmFtaWx5PSJzYW5zLXNlcmlmIiBmb250LXNpemU9IjE0IiBsZW5ndGhBZGp1c3Q9InNwYWNpbmciIHRleHRMZW5ndGg9IjQ0IiB4PSI2MzguOTkiIHk9Ijk0NS4yMTg4Ij4oUDMvOCk8L3RleHQ+PC9nPjwhLS1lbnRpdHkgTDMzLS0+PGcgaWQ9ImVsZW1fTDMzIj48cmVjdCBmaWxsPSIjRjFGMUYxIiBoZWlnaHQ9IjQ5Ljk2ODgiIHJ4PSIyLjUiIHJ5PSIyLjUiIHN0eWxlPSJzdHJva2U6IzE4MTgxODtzdHJva2Utd2lkdGg6MC41OyIgd2lkdGg9IjIzMSIgeD0iMzE4Ljk5IiB5PSIyMTUyIi8+PHRleHQgZmlsbD0iIzAwMDAwMCIgZm9udC1mYW1pbHk9InNhbnMtc2VyaWYiIGZvbnQtc2l6ZT0iMTQiIGxlbmd0aEFkanVzdD0ic3BhY2luZyIgdGV4dExlbmd0aD0iMjExIiB4PSIzMjguOTkiIHk9IjIxNzUuMjM0NCI+MzM6IER5bmFtaWNJbnRlcnBvbGF0aW9uRnVzaW9uPC90ZXh0Pjx0ZXh0IGZpbGw9IiMwMDAwMDAiIGZvbnQtZmFtaWx5PSJzYW5zLXNlcmlmIiBmb250LXNpemU9IjE0IiBsZW5ndGhBZGp1c3Q9InNwYWNpbmciIHRleHRMZW5ndGg9IjQ0IiB4PSIzMjguOTkiIHk9IjIxOTAuMjE4OCI+KFAzLzgpPC90ZXh0PjwvZz48IS0tZW50aXR5IEwzNC0tPjxnIGlkPSJlbGVtX0wzNCI+PHJlY3QgZmlsbD0iI0YxRjFGMSIgaGVpZ2h0PSI0OS45Njg4IiByeD0iMi41IiByeT0iMi41IiBzdHlsZT0ic3Ryb2tlOiMxODE4MTg7c3Ryb2tlLXdpZHRoOjAuNTsiIHdpZHRoPSIxNDYiIHg9IjM2MS40OSIgeT0iMjI0MiIvPjx0ZXh0IGZpbGw9IiMwMDAwMDAiIGZvbnQtZmFtaWx5PSJzYW5zLXNlcmlmIiBmb250LXNpemU9IjE0IiBsZW5ndGhBZGp1c3Q9InNwYWNpbmciIHRleHRMZW5ndGg9IjEyNiIgeD0iMzcxLjQ5IiB5PSIyMjY1LjIzNDQiPjM0OiBGdXNlQmxvY2tNdWx0aTwvdGV4dD48dGV4dCBmaWxsPSIjMDAwMDAwIiBmb250LWZhbWlseT0ic2Fucy1zZXJpZiIgZm9udC1zaXplPSIxNCIgbGVuZ3RoQWRqdXN0PSJzcGFjaW5nIiB0ZXh0TGVuZ3RoPSI0NCIgeD0iMzcxLjQ5IiB5PSIyMjgwLjIxODgiPihQMy84KTwvdGV4dD48L2c+PCEtLWVudGl0eSBMMzUtLT48ZyBpZD0iZWxlbV9MMzUiPjxyZWN0IGZpbGw9IiNGMUYxRjEiIGhlaWdodD0iNDkuOTY4OCIgcng9IjIuNSIgcnk9IjIuNSIgc3R5bGU9InN0cm9rZTojMTgxODE4O3N0cm9rZS13aWR0aDowLjU7IiB3aWR0aD0iMTQxIiB4PSIyNjEuOTkiIHk9IjIzMzIiLz48dGV4dCBmaWxsPSIjMDAwMDAwIiBmb250LWZhbWlseT0ic2Fucy1zZXJpZiIgZm9udC1zaXplPSIxNCIgbGVuZ3RoQWRqdXN0PSJzcGFjaW5nIiB0ZXh0TGVuZ3RoPSIxMjEiIHg9IjI3MS45OSIgeT0iMjM1NS4yMzQ0Ij4zNTogQ29udigyNTYsMywyKTwvdGV4dD48dGV4dCBmaWxsPSIjMDAwMDAwIiBmb250LWZhbWlseT0ic2Fucy1zZXJpZiIgZm9udC1zaXplPSIxNCIgbGVuZ3RoQWRqdXN0PSJzcGFjaW5nIiB0ZXh0TGVuZ3RoPSI1MSIgeD0iMjcxLjk5IiB5PSIyMzcwLjIxODgiPihQNC8xNik8L3RleHQ+PC9nPjwhLS1lbnRpdHkgTDM2LS0+PGcgaWQ9ImVsZW1fTDM2Ij48cmVjdCBmaWxsPSIjRjFGMUYxIiBoZWlnaHQ9IjQ5Ljk2ODgiIHJ4PSIyLjUiIHJ5PSIyLjUiIHN0eWxlPSJzdHJva2U6IzE4MTgxODtzdHJva2Utd2lkdGg6MC41OyIgd2lkdGg9IjE4NCIgeD0iMTM4LjQ5IiB5PSIyNDIyIi8+PHRleHQgZmlsbD0iIzAwMDAwMCIgZm9udC1mYW1pbHk9InNhbnMtc2VyaWYiIGZvbnQtc2l6ZT0iMTQiIGxlbmd0aEFkanVzdD0ic3BhY2luZyIgdGV4dExlbmd0aD0iMTY0IiB4PSIxNDguNDkiIHk9IjI0NDUuMjM0NCI+MzY6IENvbmNhdChkaW1lbnNpb249MSk8L3RleHQ+PHRleHQgZmlsbD0iIzAwMDAwMCIgZm9udC1mYW1pbHk9InNhbnMtc2VyaWYiIGZvbnQtc2l6ZT0iMTQiIGxlbmd0aEFkanVzdD0ic3BhY2luZyIgdGV4dExlbmd0aD0iNTEiIHg9IjE0OC40OSIgeT0iMjQ2MC4yMTg4Ij4oUDQvMTYpPC90ZXh0PjwvZz48IS0tZW50aXR5IEwzNy0tPjxnIGlkPSJlbGVtX0wzNyI+PHJlY3QgZmlsbD0iI0YxRjFGMSIgaGVpZ2h0PSI0OS45Njg4IiByeD0iMi41IiByeT0iMi41IiBzdHlsZT0ic3Ryb2tlOiMxODE4MTg7c3Ryb2tlLXdpZHRoOjAuNTsiIHdpZHRoPSIxNzYiIHg9IjEzNC40OSIgeT0iMjUxMiIvPjx0ZXh0IGZpbGw9IiMwMDAwMDAiIGZvbnQtZmFtaWx5PSJzYW5zLXNlcmlmIiBmb250LXNpemU9IjE0IiBsZW5ndGhBZGp1c3Q9InNwYWNpbmciIHRleHRMZW5ndGg9IjE1NiIgeD0iMTQ0LjQ5IiB5PSIyNTM1LjIzNDQiPjM3OiBDMmZfZ0NvbnYoMjU2LDAuNSk8L3RleHQ+PHRleHQgZmlsbD0iIzAwMDAwMCIgZm9udC1mYW1pbHk9InNhbnMtc2VyaWYiIGZvbnQtc2l6ZT0iMTQiIGxlbmd0aEFkanVzdD0ic3BhY2luZyIgdGV4dExlbmd0aD0iNTEiIHg9IjE0NC40OSIgeT0iMjU1MC4yMTg4Ij4oUDQvMTYpPC90ZXh0PjwvZz48IS0tZW50aXR5IEwzOC0tPjxnIGlkPSJlbGVtX0wzOCI+PHJlY3QgZmlsbD0iI0YxRjFGMSIgaGVpZ2h0PSI0OS45Njg4IiByeD0iMi41IiByeT0iMi41IiBzdHlsZT0ic3Ryb2tlOiMxODE4MTg7c3Ryb2tlLXdpZHRoOjAuNTsiIHdpZHRoPSIxNDEiIHg9IjE0My45OSIgeT0iMjYwMiIvPjx0ZXh0IGZpbGw9IiMwMDAwMDAiIGZvbnQtZmFtaWx5PSJzYW5zLXNlcmlmIiBmb250LXNpemU9IjE0IiBsZW5ndGhBZGp1c3Q9InNwYWNpbmciIHRleHRMZW5ndGg9IjEyMSIgeD0iMTUzLjk5IiB5PSIyNjI1LjIzNDQiPjM4OiBDb252KDI1NiwzLDIpPC90ZXh0Pjx0ZXh0IGZpbGw9IiMwMDAwMDAiIGZvbnQtZmFtaWx5PSJzYW5zLXNlcmlmIiBmb250LXNpemU9IjE0IiBsZW5ndGhBZGp1c3Q9InNwYWNpbmciIHRleHRMZW5ndGg9IjUxIiB4PSIxNTMuOTkiIHk9IjI2NDAuMjE4OCI+KFA1LzMyKTwvdGV4dD48L2c+PCEtLWVudGl0eSBMMzktLT48ZyBpZD0iZWxlbV9MMzkiPjxyZWN0IGZpbGw9IiNGMUYxRjEiIGhlaWdodD0iNDkuOTY4OCIgcng9IjIuNSIgcnk9IjIuNSIgc3R5bGU9InN0cm9rZTojMTgxODE4O3N0cm9rZS13aWR0aDowLjU7IiB3aWR0aD0iMTg0IiB4PSIxMTEuNDkiIHk9IjI2OTIiLz48dGV4dCBmaWxsPSIjMDAwMDAwIiBmb250LWZhbWlseT0ic2Fucy1zZXJpZiIgZm9udC1zaXplPSIxNCIgbGVuZ3RoQWRqdXN0PSJzcGFjaW5nIiB0ZXh0TGVuZ3RoPSIxNjQiIHg9IjEyMS40OSIgeT0iMjcxNS4yMzQ0Ij4zOTogQ29uY2F0KGRpbWVuc2lvbj0xKTwvdGV4dD48dGV4dCBmaWxsPSIjMDAwMDAwIiBmb250LWZhbWlseT0ic2Fucy1zZXJpZiIgZm9udC1zaXplPSIxNCIgbGVuZ3RoQWRqdXN0PSJzcGFjaW5nIiB0ZXh0TGVuZ3RoPSI1MSIgeD0iMTIxLjQ5IiB5PSIyNzMwLjIxODgiPihQNS8zMik8L3RleHQ+PC9nPjwhLS1lbnRpdHkgTDQwLS0+PGcgaWQ9ImVsZW1fTDQwIj48cmVjdCBmaWxsPSIjRjFGMUYxIiBoZWlnaHQ9IjQ5Ljk2ODgiIHJ4PSIyLjUiIHJ5PSIyLjUiIHN0eWxlPSJzdHJva2U6IzE4MTgxODtzdHJva2Utd2lkdGg6MC41OyIgd2lkdGg9IjE3NiIgeD0iMTE1LjQ5IiB5PSIyNzgyIi8+PHRleHQgZmlsbD0iIzAwMDAwMCIgZm9udC1mYW1pbHk9InNhbnMtc2VyaWYiIGZvbnQtc2l6ZT0iMTQiIGxlbmd0aEFkanVzdD0ic3BhY2luZyIgdGV4dExlbmd0aD0iMTU2IiB4PSIxMjUuNDkiIHk9IjI4MDUuMjM0NCI+NDA6IEMyZl9nQ29udigyNTYsMC41KTwvdGV4dD48dGV4dCBmaWxsPSIjMDAwMDAwIiBmb250LWZhbWlseT0ic2Fucy1zZXJpZiIgZm9udC1zaXplPSIxNCIgbGVuZ3RoQWRqdXN0PSJzcGFjaW5nIiB0ZXh0TGVuZ3RoPSI1MSIgeD0iMTI1LjQ5IiB5PSIyODIwLjIxODgiPihQNS8zMik8L3RleHQ+PC9nPjwhLS1lbnRpdHkgTDQxLS0+PGcgaWQ9ImVsZW1fTDQxIj48cmVjdCBmaWxsPSIjRjFGMUYxIiBoZWlnaHQ9IjQ5Ljk2ODgiIHJ4PSIyLjUiIHJ5PSIyLjUiIHN0eWxlPSJzdHJva2U6IzE4MTgxODtzdHJva2Utd2lkdGg6MC41OyIgd2lkdGg9IjI2NyIgeD0iNjkuOTkiIHk9IjI4NzIiLz48dGV4dCBmaWxsPSIjMDAwMDAwIiBmb250LWZhbWlseT0ic2Fucy1zZXJpZiIgZm9udC1zaXplPSIxNCIgbGVuZ3RoQWRqdXN0PSJzcGFjaW5nIiB0ZXh0TGVuZ3RoPSIyNDciIHg9Ijc5Ljk5IiB5PSIyODk1LjIzNDQiPjQxOiBSVERFVFJEZWNvZGVyKDgwLDI1NiwzMDAsNCw4LDMpPC90ZXh0Pjx0ZXh0IGZpbGw9IiMwMDAwMDAiIGZvbnQtZmFtaWx5PSJzYW5zLXNlcmlmIiBmb250LXNpemU9IjE0IiBsZW5ndGhBZGp1c3Q9InNwYWNpbmciIHRleHRMZW5ndGg9IjExNCIgeD0iNzkuOTkiIHk9IjI5MTAuMjE4OCI+RGV0ZWN0KFAzLFA0LFA1KTwvdGV4dD48L2c+PCEtLWxpbmsgTDAgdG8gTDEtLT48ZyBpZD0ibGlua19MMF9MMSI+PHBhdGggZD0iTTUzMi4xLDU3LjA1IEM1MjUuMTgsNjkuNDYgNTE5LjY4ODksNzkuMzI3OCA1MTIuNzc4OSw5MS43Mzc4ICIgZmlsbD0ibm9uZSIgaWQ9IkwwLXRvLUwxIiBzdHlsZT0ic3Ryb2tlOiMxODE4MTg7c3Ryb2tlLXdpZHRoOjEuMDsiLz48cG9seWdvbiBmaWxsPSIjMTgxODE4IiBwb2ludHM9IjUwOS44Niw5Ni45OCw1MTcuNzMzMSw5MS4wNjI3LDUxMi4yOTI0LDkyLjYxMTUsNTEwLjc0MzUsODcuMTcwOSw1MDkuODYsOTYuOTgiIHN0eWxlPSJzdHJva2U6IzE4MTgxODtzdHJva2Utd2lkdGg6MS4wOyIvPjwvZz48IS0tbGluayBMMSB0byBMMi0tPjxnIGlkPSJsaW5rX0wxX0wyIj48cGF0aCBkPSJNNDk2LjQ5LDE0Ny4wNSBDNDk2LjQ5LDE1OS40NiA0OTYuNDksMTY4LjU3IDQ5Ni40OSwxODAuOTggIiBmaWxsPSJub25lIiBpZD0iTDEtdG8tTDIiIHN0eWxlPSJzdHJva2U6IzE4MTgxODtzdHJva2Utd2lkdGg6MS4wOyIvPjxwb2x5Z29uIGZpbGw9IiMxODE4MTgiIHBvaW50cz0iNDk2LjQ5LDE4Ni45OCw1MDAuNDksMTc3Ljk4LDQ5Ni40OSwxODEuOTgsNDkyLjQ5LDE3Ny45OCw0OTYuNDksMTg2Ljk4IiBzdHlsZT0ic3Ryb2tlOiMxODE4MTg7c3Ryb2tlLXdpZHRoOjEuMDsiLz48L2c+PCEtLWxpbmsgTDIgdG8gTDMtLT48ZyBpZD0ibGlua19MMl9MMyI+PHBhdGggZD0iTTQ5Ni40OSwyMzcuMDUgQzQ5Ni40OSwyNDkuNDYgNDk2LjQ5LDI1OC41NyA0OTYuNDksMjcwLjk4ICIgZmlsbD0ibm9uZSIgaWQ9IkwyLXRvLUwzIiBzdHlsZT0ic3Ryb2tlOiMxODE4MTg7c3Ryb2tlLXdpZHRoOjEuMDsiLz48cG9seWdvbiBmaWxsPSIjMTgxODE4IiBwb2ludHM9IjQ5Ni40OSwyNzYuOTgsNTAwLjQ5LDI2Ny45OCw0OTYuNDksMjcxLjk4LDQ5Mi40OSwyNjcuOTgsNDk2LjQ5LDI3Ni45OCIgc3R5bGU9InN0cm9rZTojMTgxODE4O3N0cm9rZS13aWR0aDoxLjA7Ii8+PC9nPjwhLS1saW5rIEwwIHRvIEw0LS0+PGcgaWQ9ImxpbmtfTDBfTDQiPjxwYXRoIGQ9Ik01NTguNDMsNTcuMjMgQzU2NC4wNSw2OC45MiA1NzAuMTIsODMuMzQgNTczLjQ5LDk3IEM1OTcuNjMsMTk0Ljg3IDU5Ny4yMzMyLDMxMC4yMTI4IDU5NS42ODMyLDM2MC45NTI4ICIgZmlsbD0ibm9uZSIgaWQ9IkwwLXRvLUw0IiBzdHlsZT0ic3Ryb2tlOiMxODE4MTg7c3Ryb2tlLXdpZHRoOjEuMDsiLz48cG9seWdvbiBmaWxsPSIjMTgxODE4IiBwb2ludHM9IjU5NS41LDM2Ni45NSw1OTkuNzcyOSwzNTguMDc2Myw1OTUuNjUyNywzNjEuOTUyMyw1OTEuNzc2NywzNTcuODMyMSw1OTUuNSwzNjYuOTUiIHN0eWxlPSJzdHJva2U6IzE4MTgxODtzdHJva2Utd2lkdGg6MS4wOyIvPjwvZz48IS0tbGluayBMMyB0byBMNC0tPjxnIGlkPSJsaW5rX0wzX0w0Ij48cGF0aCBkPSJNNTIzLjI3LDMyNy4wNSBDNTM3LjA5LDMzOS40NiA1NDkuNDU1NywzNTAuNTYxMiA1NjMuMjc1NywzNjIuOTcxMiAiIGZpbGw9Im5vbmUiIGlkPSJMMy10by1MNCIgc3R5bGU9InN0cm9rZTojMTgxODE4O3N0cm9rZS13aWR0aDoxLjA7Ii8+PHBvbHlnb24gZmlsbD0iIzE4MTgxOCIgcG9pbnRzPSI1NjcuNzQsMzY2Ljk4LDU2My43MTYxLDM1Ny45OTA2LDU2NC4wMTk4LDM2My42MzkzLDU1OC4zNzExLDM2My45NDMsNTY3Ljc0LDM2Ni45OCIgc3R5bGU9InN0cm9rZTojMTgxODE4O3N0cm9rZS13aWR0aDoxLjA7Ii8+PC9nPjwhLS1saW5rIEw0IHRvIEw1LS0+PGcgaWQ9ImxpbmtfTDRfTDUiPjxwYXRoIGQ9Ik01OTcuNDksNDE3LjA1IEM1OTkuMDUsNDI5LjQ2IDYwMC4xODE3LDQzOC42MTY5IDYwMS43NDE3LDQ1MS4wMjY5ICIgZmlsbD0ibm9uZSIgaWQ9Ikw0LXRvLUw1IiBzdHlsZT0ic3Ryb2tlOiMxODE4MTg7c3Ryb2tlLXdpZHRoOjEuMDsiLz48cG9seWdvbiBmaWxsPSIjMTgxODE4IiBwb2ludHM9IjYwMi40OSw0NTYuOTgsNjA1LjMzNjMsNDQ3LjU1MTQsNjAxLjg2NjQsNDUyLjAxOSw1OTcuMzk4Nyw0NDguNTQ5Miw2MDIuNDksNDU2Ljk4IiBzdHlsZT0ic3Ryb2tlOiMxODE4MTg7c3Ryb2tlLXdpZHRoOjEuMDsiLz48L2c+PCEtLWxpbmsgTDUgdG8gTDYtLT48ZyBpZD0ibGlua19MNV9MNiI+PHBhdGggZD0iTTYwMi40OCw1MDcuMDUgQzYwMC45Myw1MTkuNDYgNTk5Ljc4MzYsNTI4LjYxNjMgNTk4LjIzMzYsNTQxLjAyNjMgIiBmaWxsPSJub25lIiBpZD0iTDUtdG8tTDYiIHN0eWxlPSJzdHJva2U6IzE4MTgxODtzdHJva2Utd2lkdGg6MS4wOyIvPjxwb2x5Z29uIGZpbGw9IiMxODE4MTgiIHBvaW50cz0iNTk3LjQ5LDU0Ni45OCw2MDIuNTc0Niw1MzguNTQ1MSw1OTguMTA5Nyw1NDIuMDE4NSw1OTQuNjM2Myw1MzcuNTUzNiw1OTcuNDksNTQ2Ljk4IiBzdHlsZT0ic3Ryb2tlOiMxODE4MTg7c3Ryb2tlLXdpZHRoOjEuMDsiLz48L2c+PCEtLWxpbmsgTDMgdG8gTDctLT48ZyBpZD0ibGlua19MM19MNyI+PHBhdGggZD0iTTQ5NC4yMSwzMjcuMDMgQzQ5MC4wOSwzNzcuNzIgNDgzLjc2LDQ5OC45OSA1MDYuNDksNTk3IEM1MDkuNjEsNjEwLjQ2IDUxMi41MDY1LDYxOS4zODc1IDUxNy4wOTY1LDYzMS4xOTc1ICIgZmlsbD0ibm9uZSIgaWQ9IkwzLXRvLUw3IiBzdHlsZT0ic3Ryb2tlOiMxODE4MTg7c3Ryb2tlLXdpZHRoOjEuMDsiLz48cG9seWdvbiBmaWxsPSIjMTgxODE4IiBwb2ludHM9IjUxOS4yNyw2MzYuNzksNTE5LjczOCw2MjYuOTUyMyw1MTcuNDU4Nyw2MzIuMTI5Niw1MTIuMjgxNCw2MjkuODUwMyw1MTkuMjcsNjM2Ljc5IiBzdHlsZT0ic3Ryb2tlOiMxODE4MTg7c3Ryb2tlLXdpZHRoOjEuMDsiLz48L2c+PCEtLWxpbmsgTDYgdG8gTDctLT48ZyBpZD0ibGlua19MNl9MNyI+PHBhdGggZD0iTTU3Ni43Myw1OTcuMDUgQzU2Ny41NSw2MDkuNDYgNTU5Ljk2NTcsNjE5Ljc0NDUgNTUwLjc5NTcsNjMyLjE1NDUgIiBmaWxsPSJub25lIiBpZD0iTDYtdG8tTDciIHN0eWxlPSJzdHJva2U6IzE4MTgxODtzdHJva2Utd2lkdGg6MS4wOyIvPjxwb2x5Z29uIGZpbGw9IiMxODE4MTgiIHBvaW50cz0iNTQ3LjIzLDYzNi45OCw1NTUuNzk1Niw2MzIuMTE4OCw1NTAuMjAxNCw2MzIuOTU4Nyw1NDkuMzYxNSw2MjcuMzY0Niw1NDcuMjMsNjM2Ljk4IiBzdHlsZT0ic3Ryb2tlOiMxODE4MTg7c3Ryb2tlLXdpZHRoOjEuMDsiLz48L2c+PCEtLWxpbmsgTDcgdG8gTDgtLT48ZyBpZD0ibGlua19MN19MOCI+PHBhdGggZD0iTTUxNi4xLDY4Ny4wNSBDNTA5LjE4LDY5OS40NiA1MDMuNjg4OSw3MDkuMzI3OCA0OTYuNzc4OSw3MjEuNzM3OCAiIGZpbGw9Im5vbmUiIGlkPSJMNy10by1MOCIgc3R5bGU9InN0cm9rZTojMTgxODE4O3N0cm9rZS13aWR0aDoxLjA7Ii8+PHBvbHlnb24gZmlsbD0iIzE4MTgxOCIgcG9pbnRzPSI0OTMuODYsNzI2Ljk4LDUwMS43MzMxLDcyMS4wNjI3LDQ5Ni4yOTI0LDcyMi42MTE1LDQ5NC43NDM1LDcxNy4xNzA5LDQ5My44Niw3MjYuOTgiIHN0eWxlPSJzdHJva2U6IzE4MTgxODtzdHJva2Utd2lkdGg6MS4wOyIvPjwvZz48IS0tbGluayBMOCB0byBMOS0tPjxnIGlkPSJsaW5rX0w4X0w5Ij48cGF0aCBkPSJNNDgwLjIyLDc3Ny4yNiBDNDc5LjY0LDgyOC4yOCA0NzguMzg2MSw5NDAuMTkwNCA0NzcuODI2MSw5OTAuOTkwNCAiIGZpbGw9Im5vbmUiIGlkPSJMOC10by1MOSIgc3R5bGU9InN0cm9rZTojMTgxODE4O3N0cm9rZS13aWR0aDoxLjA7Ii8+PHBvbHlnb24gZmlsbD0iIzE4MTgxOCIgcG9pbnRzPSI0NzcuNzYsOTk2Ljk5LDQ4MS44NTksOTg4LjAzNDYsNDc3LjgxNTEsOTkxLjk5MDMsNDczLjg1OTQsOTg3Ljk0NjUsNDc3Ljc2LDk5Ni45OSIgc3R5bGU9InN0cm9rZTojMTgxODE4O3N0cm9rZS13aWR0aDoxLjA7Ii8+PC9nPjwhLS1saW5rIEw3IHRvIEwxMC0tPjxnIGlkPSJsaW5rX0w3X0wxMCI+PHBhdGggZD0iTTQ2Mi41NCw2ODcuMDUgQzQyNy45Nyw2OTkuNDYgMzkxLjU1Nyw3MTIuNTQyMyAzNTYuOTk3LDcyNC45NTIzICIgZmlsbD0ibm9uZSIgaWQ9Ikw3LXRvLUwxMCIgc3R5bGU9InN0cm9rZTojMTgxODE4O3N0cm9rZS13aWR0aDoxLjA7Ii8+PHBvbHlnb24gZmlsbD0iIzE4MTgxOCIgcG9pbnRzPSIzNTEuMzUsNzI2Ljk4LDM2MS4xNzIzLDcyNy43MDMsMzU2LjA1NTgsNzI1LjI5MDIsMzU4LjQ2ODYsNzIwLjE3MzcsMzUxLjM1LDcyNi45OCIgc3R5bGU9InN0cm9rZTojMTgxODE4O3N0cm9rZS13aWR0aDoxLjA7Ii8+PC9nPjwhLS1saW5rIEwxMCB0byBMMTEtLT48ZyBpZD0ibGlua19MMTBfTDExIj48cGF0aCBkPSJNMjgzLjk0LDc3Ny4wNSBDMjgzLjY2LDc4OS40NiAyODMuNDYwMiw3OTguNTcxNiAyODMuMTcwMiw4MTAuOTgxNiAiIGZpbGw9Im5vbmUiIGlkPSJMMTAtdG8tTDExIiBzdHlsZT0ic3Ryb2tlOiMxODE4MTg7c3Ryb2tlLXdpZHRoOjEuMDsiLz48cG9seWdvbiBmaWxsPSIjMTgxODE4IiBwb2ludHM9IjI4My4wMyw4MTYuOTgsMjg3LjIzOTIsODA4LjA3NTksMjgzLjE0NjgsODExLjk4MTQsMjc5LjI0MTMsODA3Ljg4OSwyODMuMDMsODE2Ljk4IiBzdHlsZT0ic3Ryb2tlOiMxODE4MTg7c3Ryb2tlLXdpZHRoOjEuMDsiLz48L2c+PCEtLWxpbmsgTDExIHRvIEwxMi0tPjxnIGlkPSJsaW5rX0wxMV9MMTIiPjxwYXRoIGQ9Ik0yNzkuNzUsODY3LjA1IEMyNzguMzQsODc5LjQ2IDI3Ny4zMDc0LDg4OC42MDg0IDI3NS44OTc0LDkwMS4wMTg0ICIgZmlsbD0ibm9uZSIgaWQ9IkwxMS10by1MMTIiIHN0eWxlPSJzdHJva2U6IzE4MTgxODtzdHJva2Utd2lkdGg6MS4wOyIvPjxwb2x5Z29uIGZpbGw9IiMxODE4MTgiIHBvaW50cz0iMjc1LjIyLDkwNi45OCwyODAuMjEwNSw4OTguNDg5MSwyNzUuNzg0NSw5MDIuMDEyLDI3Mi4yNjE2LDg5Ny41ODYsMjc1LjIyLDkwNi45OCIgc3R5bGU9InN0cm9rZTojMTgxODE4O3N0cm9rZS13aWR0aDoxLjA7Ii8+PC9nPjwhLS1saW5rIEwxMiB0byBMMTMtLT48ZyBpZD0ibGlua19MMTJfTDEzIj48cGF0aCBkPSJNMjcxLjEyLDk1Ny4wNSBDMjcwLjQyLDk2OS40NiAyNjkuOTAyNyw5NzguNTc5OCAyNjkuMTkyNyw5OTAuOTg5OCAiIGZpbGw9Im5vbmUiIGlkPSJMMTItdG8tTDEzIiBzdHlsZT0ic3Ryb2tlOiMxODE4MTg7c3Ryb2tlLXdpZHRoOjEuMDsiLz48cG9seWdvbiBmaWxsPSIjMTgxODE4IiBwb2ludHM9IjI2OC44NSw5OTYuOTgsMjczLjM1NzUsOTg4LjIyMzIsMjY5LjEzNTYsOTkxLjk4ODIsMjY1LjM3MDYsOTg3Ljc2NjIsMjY4Ljg1LDk5Ni45OCIgc3R5bGU9InN0cm9rZTojMTgxODE4O3N0cm9rZS13aWR0aDoxLjA7Ii8+PC9nPjwhLS1saW5rIEw5IHRvIEwxNC0tPjxnIGlkPSJsaW5rX0w5X0wxNCI+PHBhdGggZD0iTTQ0Mi41MSwxMDQ3LjA1IEM0MjQuNDUsMTA1OS40NiA0MDcuNDI1MSwxMDcxLjE3MiAzODkuMzY1MSwxMDgzLjU4MiAiIGZpbGw9Im5vbmUiIGlkPSJMOS10by1MMTQiIHN0eWxlPSJzdHJva2U6IzE4MTgxODtzdHJva2Utd2lkdGg6MS4wOyIvPjxwb2x5Z29uIGZpbGw9IiMxODE4MTgiIHBvaW50cz0iMzg0LjQyLDEwODYuOTgsMzk0LjEwMjksMTA4NS4xNzk3LDM4OC41NDA5LDEwODQuMTQ4MywzODkuNTcyMiwxMDc4LjU4NjMsMzg0LjQyLDEwODYuOTgiIHN0eWxlPSJzdHJva2U6IzE4MTgxODtzdHJva2Utd2lkdGg6MS4wOyIvPjwvZz48IS0tbGluayBMMTMgdG8gTDE0LS0+PGcgaWQ9ImxpbmtfTDEzX0wxNCI+PHBhdGggZD0iTTI4OS44OSwxMDQ3LjA1IEMzMDEuNDYsMTA1OS40NiAzMTEuNDQ4NSwxMDcwLjE4MTQgMzIzLjAxODUsMTA4Mi41OTE0ICIgZmlsbD0ibm9uZSIgaWQ9IkwxMy10by1MMTQiIHN0eWxlPSJzdHJva2U6IzE4MTgxODtzdHJva2Utd2lkdGg6MS4wOyIvPjxwb2x5Z29uIGZpbGw9IiMxODE4MTgiIHBvaW50cz0iMzI3LjExLDEwODYuOTgsMzIzLjg5ODQsMTA3Ny42Njk1LDMyMy43MDA0LDEwODMuMzIyOSwzMTguMDQ3LDEwODMuMTI0OCwzMjcuMTEsMTA4Ni45OCIgc3R5bGU9InN0cm9rZTojMTgxODE4O3N0cm9rZS13aWR0aDoxLjA7Ii8+PC9nPjwhLS1saW5rIEwxNCB0byBMMTUtLT48ZyBpZD0ibGlua19MMTRfTDE1Ij48cGF0aCBkPSJNMzU5LjMyLDExMzcuMDUgQzM2NC40LDExNDkuNDYgMzY4LjMwNywxMTU5LjAxNzIgMzczLjM4NywxMTcxLjQyNzIgIiBmaWxsPSJub25lIiBpZD0iTDE0LXRvLUwxNSIgc3R5bGU9InN0cm9rZTojMTgxODE4O3N0cm9rZS13aWR0aDoxLjA7Ii8+PHBvbHlnb24gZmlsbD0iIzE4MTgxOCIgcG9pbnRzPSIzNzUuNjYsMTE3Ni45OCwzNzUuOTUyMywxMTY3LjEzNTUsMzczLjc2NTgsMTE3Mi4zNTI3LDM2OC41NDg2LDExNzAuMTY2MiwzNzUuNjYsMTE3Ni45OCIgc3R5bGU9InN0cm9rZTojMTgxODE4O3N0cm9rZS13aWR0aDoxLjA7Ii8+PC9nPjwhLS1saW5rIEwxNSB0byBMMTYtLT48ZyBpZD0ibGlua19MMTVfTDE2Ij48cGF0aCBkPSJNMzg3LjEzLDEyMjcuMDUgQzM4Ny45NywxMjM5LjQ2IDM4OC41OSwxMjQ4LjU4NCAzODkuNDQsMTI2MC45OTQgIiBmaWxsPSJub25lIiBpZD0iTDE1LXRvLUwxNiIgc3R5bGU9InN0cm9rZTojMTgxODE4O3N0cm9rZS13aWR0aDoxLjA7Ii8+PHBvbHlnb24gZmlsbD0iIzE4MTgxOCIgcG9pbnRzPSIzODkuODUsMTI2Ni45OCwzOTMuMjI1NywxMjU3LjcyNzcsMzg5LjUwODMsMTI2MS45OTE3LDM4NS4yNDQ0LDEyNTguMjc0NCwzODkuODUsMTI2Ni45OCIgc3R5bGU9InN0cm9rZTojMTgxODE4O3N0cm9rZS13aWR0aDoxLjA7Ii8+PC9nPjwhLS1saW5rIEwxNCB0byBMMTctLT48ZyBpZD0ibGlua19MMTRfTDE3Ij48cGF0aCBkPSJNMzAyLjQ5LDExMzcuMDUgQzI3OC4yMiwxMTQ5LjQ2IDI1NC4wMzE3LDExNjEuODM3NSAyMjkuNzcxNywxMTc0LjI0NzUgIiBmaWxsPSJub25lIiBpZD0iTDE0LXRvLUwxNyIgc3R5bGU9InN0cm9rZTojMTgxODE4O3N0cm9rZS13aWR0aDoxLjA7Ii8+PHBvbHlnb24gZmlsbD0iIzE4MTgxOCIgcG9pbnRzPSIyMjQuNDMsMTE3Ni45OCwyMzQuMjY0MiwxMTc2LjQ0MjQsMjI4Ljg4MTQsMTE3NC43MDI5LDIzMC42MjA5LDExNjkuMzIwMSwyMjQuNDMsMTE3Ni45OCIgc3R5bGU9InN0cm9rZTojMTgxODE4O3N0cm9rZS13aWR0aDoxLjA7Ii8+PC9nPjwhLS1saW5rIEwxNyB0byBMMTgtLT48ZyBpZD0ibGlua19MMTdfTDE4Ij48cGF0aCBkPSJNMTc1LjU3LDEyMjcuMDUgQzE3NC41OSwxMjM5LjQ2IDE3My44NjcxLDEyNDguNTg5IDE3Mi44NzcxLDEyNjAuOTk5ICIgZmlsbD0ibm9uZSIgaWQ9IkwxNy10by1MMTgiIHN0eWxlPSJzdHJva2U6IzE4MTgxODtzdHJva2Utd2lkdGg6MS4wOyIvPjxwb2x5Z29uIGZpbGw9IiMxODE4MTgiIHBvaW50cz0iMTcyLjQsMTI2Ni45OCwxNzcuMTAzLDEyNTguMzI2NiwxNzIuNzk3NiwxMjYxLjk5NTgsMTY5LjEyODQsMTI1Ny42OTA0LDE3Mi40LDEyNjYuOTgiIHN0eWxlPSJzdHJva2U6IzE4MTgxODtzdHJva2Utd2lkdGg6MS4wOyIvPjwvZz48IS0tbGluayBMMTYgdG8gTDE5LS0+PGcgaWQ9ImxpbmtfTDE2X0wxOSI+PHBhdGggZD0iTTM4NC4xMSwxMzE3LjA1IEMzODAuMywxMzI5LjQ2IDM3Ny40MTY3LDEzMzguODMyOSAzNzMuNjE2NywxMzUxLjI0MjkgIiBmaWxsPSJub25lIiBpZD0iTDE2LXRvLUwxOSIgc3R5bGU9InN0cm9rZTojMTgxODE4O3N0cm9rZS13aWR0aDoxLjA7Ii8+PHBvbHlnb24gZmlsbD0iIzE4MTgxOCIgcG9pbnRzPSIzNzEuODYsMTM1Ni45OCwzNzguMzE5OCwxMzQ5LjU0NTUsMzczLjMyMzksMTM1Mi4xOTkxLDM3MC42NzA0LDEzNDcuMjAzMywzNzEuODYsMTM1Ni45OCIgc3R5bGU9InN0cm9rZTojMTgxODE4O3N0cm9rZS13aWR0aDoxLjA7Ii8+PC9nPjwhLS1saW5rIEwxOCB0byBMMTktLT48ZyBpZD0ibGlua19MMThfTDE5Ij48cGF0aCBkPSJNMjIzLjUsMTMxNy4wNSBDMjUwLjg3LDEzMjkuNDYgMjc4LjcxNTgsMTM0Mi4wOTE1IDMwNi4wNzU4LDEzNTQuNTAxNSAiIGZpbGw9Im5vbmUiIGlkPSJMMTgtdG8tTDE5IiBzdHlsZT0ic3Ryb2tlOiMxODE4MTg7c3Ryb2tlLXdpZHRoOjEuMDsiLz48cG9seWdvbiBmaWxsPSIjMTgxODE4IiBwb2ludHM9IjMxMS41NCwxMzU2Ljk4LDMwNC45OTYsMTM0OS42MTk1LDMwNi45ODY1LDEzNTQuOTE0NiwzMDEuNjkxNCwxMzU2LjkwNTEsMzExLjU0LDEzNTYuOTgiIHN0eWxlPSJzdHJva2U6IzE4MTgxODtzdHJva2Utd2lkdGg6MS4wOyIvPjwvZz48IS0tbGluayBMMTkgdG8gTDIwLS0+PGcgaWQ9ImxpbmtfTDE5X0wyMCI+PHBhdGggZD0iTTM2NC40OSwxNDA3LjA1IEMzNjQuNDksMTQxOS40NiAzNjQuNDksMTQyOC41NyAzNjQuNDksMTQ0MC45OCAiIGZpbGw9Im5vbmUiIGlkPSJMMTktdG8tTDIwIiBzdHlsZT0ic3Ryb2tlOiMxODE4MTg7c3Ryb2tlLXdpZHRoOjEuMDsiLz48cG9seWdvbiBmaWxsPSIjMTgxODE4IiBwb2ludHM9IjM2NC40OSwxNDQ2Ljk4LDM2OC40OSwxNDM3Ljk4LDM2NC40OSwxNDQxLjk4LDM2MC40OSwxNDM3Ljk4LDM2NC40OSwxNDQ2Ljk4IiBzdHlsZT0ic3Ryb2tlOiMxODE4MTg7c3Ryb2tlLXdpZHRoOjEuMDsiLz48L2c+PCEtLWxpbmsgTDIwIHRvIEwyMS0tPjxnIGlkPSJsaW5rX0wyMF9MMjEiPjxwYXRoIGQ9Ik0zNjQuNDksMTQ5Ny4xNSBDMzY0LjQ5LDE1MDkuOTMgMzY0LjQ5LDE1MTkuMzEgMzY0LjQ5LDE1MzAuNzcgIiBmaWxsPSJub25lIiBpZD0iTDIwLXRvLUwyMSIgc3R5bGU9InN0cm9rZTojMTgxODE4O3N0cm9rZS13aWR0aDoxLjA7Ii8+PHBvbHlnb24gZmlsbD0iIzE4MTgxOCIgcG9pbnRzPSIzNjQuNDksMTUzNi43NywzNjguNDksMTUyNy43NywzNjQuNDksMTUzMS43NywzNjAuNDksMTUyNy43NywzNjQuNDksMTUzNi43NyIgc3R5bGU9InN0cm9rZTojMTgxODE4O3N0cm9rZS13aWR0aDoxLjA7Ii8+PC9nPjwhLS1saW5rIEwyMSB0byBMMjItLT48ZyBpZD0ibGlua19MMjFfTDIyIj48cGF0aCBkPSJNMzY0LjQ5LDE1NzIuMTggQzM2NC40OSwxNTgzLjYgMzY0LjQ5LDE1OTIuOTMgMzY0LjQ5LDE2MDUuNyAiIGZpbGw9Im5vbmUiIGlkPSJMMjEtdG8tTDIyIiBzdHlsZT0ic3Ryb2tlOiMxODE4MTg7c3Ryb2tlLXdpZHRoOjEuMDsiLz48cG9seWdvbiBmaWxsPSIjMTgxODE4IiBwb2ludHM9IjM2NC40OSwxNjExLjcsMzY4LjQ5LDE2MDIuNywzNjQuNDksMTYwNi43LDM2MC40OSwxNjAyLjcsMzY0LjQ5LDE2MTEuNyIgc3R5bGU9InN0cm9rZTojMTgxODE4O3N0cm9rZS13aWR0aDoxLjA7Ii8+PC9nPjwhLS1saW5rIEw3IHRvIEwyMy0tPjxnIGlkPSJsaW5rX0w3X0wyMyI+PHBhdGggZD0iTTU0MS41Niw2ODcuMTMgQzU0Ny4wNiw2OTguOTIgNTUzLjI3LDcxMy40NSA1NTcuNDksNzI3IEM1NzIuODEsNzc2LjI3IDU3OS40OSw3ODkuNCA1NzkuNDksODQxIEM1NzkuNDksODQxIDU3OS40OSw4NDEgNTc5LjQ5LDE1NTUuNSBDNTc5LjQ5LDE2MTQuMzUgNTM4Ljc2MjcsMTY2Ni41MzkzIDUwOS4xMzI3LDE2OTcuNDM5MyAiIGZpbGw9Im5vbmUiIGlkPSJMNy10by1MMjMiIHN0eWxlPSJzdHJva2U6IzE4MTgxODtzdHJva2Utd2lkdGg6MS4wOyIvPjxwb2x5Z29uIGZpbGw9IiMxODE4MTgiIHBvaW50cz0iNTA0Ljk4LDE3MDEuNzcsNTE0LjA5NjIsMTY5OC4wNDI0LDUwOC40NDA2LDE2OTguMTYxMSw1MDguMzIxOSwxNjkyLjUwNTUsNTA0Ljk4LDE3MDEuNzciIHN0eWxlPSJzdHJva2U6IzE4MTgxODtzdHJva2Utd2lkdGg6MS4wOyIvPjwvZz48IS0tbGluayBMMTQgdG8gTDIzLS0+PGcgaWQ9ImxpbmtfTDE0X0wyMyI+PHBhdGggZD0iTTQxNCwxMTM3LjAzIEM0MzIuOTQsMTE0Ni44NiA0NTIuMTMsMTE2MCA0NjUuNDksMTE3NyBDNDk3LjkzLDEyMTguMjggNDk2LjQ5LDEyMzguNDkgNDk2LjQ5LDEyOTEgQzQ5Ni40OSwxMjkxIDQ5Ni40OSwxMjkxIDQ5Ni40OSwxNTU1LjUgQzQ5Ni40OSwxNjA3Ljg2IDQ4OS4zNTI5LDE2NjIuODc4MyA0ODQuMzMyOSwxNjk1Ljg1ODMgIiBmaWxsPSJub25lIiBpZD0iTDE0LXRvLUwyMyIgc3R5bGU9InN0cm9rZTojMTgxODE4O3N0cm9rZS13aWR0aDoxLjA7Ii8+PHBvbHlnb24gZmlsbD0iIzE4MTgxOCIgcG9pbnRzPSI0ODMuNDMsMTcwMS43OSw0ODguNzM4OCwxNjkzLjQ5NDQsNDg0LjE4MjQsMTY5Ni44NDY5LDQ4MC44Mjk5LDE2OTIuMjkwNiw0ODMuNDMsMTcwMS43OSIgc3R5bGU9InN0cm9rZTojMTgxODE4O3N0cm9rZS13aWR0aDoxLjA7Ii8+PC9nPjwhLS1saW5rIEwyMiB0byBMMjMtLT48ZyBpZD0ibGlua19MMjJfTDIzIj48cGF0aCBkPSJNMzk1LjkxLDE2NjIuMDUgQzQxMi4xNCwxNjc0LjQ2IDQyNy4xMTQ4LDE2ODUuOTI0MSA0NDMuMzM0OCwxNjk4LjMzNDEgIiBmaWxsPSJub25lIiBpZD0iTDIyLXRvLUwyMyIgc3R5bGU9InN0cm9rZTojMTgxODE4O3N0cm9rZS13aWR0aDoxLjA7Ii8+PHBvbHlnb24gZmlsbD0iIzE4MTgxOCIgcG9pbnRzPSI0NDguMSwxNzAxLjk4LDQ0My4zODI4LDE2OTMuMzM0Myw0NDQuMTI5LDE2OTguOTQxNyw0MzguNTIxNiwxNjk5LjY4OCw0NDguMSwxNzAxLjk4IiBzdHlsZT0ic3Ryb2tlOiMxODE4MTg7c3Ryb2tlLXdpZHRoOjEuMDsiLz48L2c+PCEtLWxpbmsgTDIzIHRvIEwyNC0tPjxnIGlkPSJsaW5rX0wyM19MMjQiPjxwYXRoIGQ9Ik00OTMuNzgsMTc1Mi4wMSBDNTE0LjAxLDE3ODUuOTggNTQ3LjcyMDYsMTg0Mi41NzQ1IDU2OC4wMTA2LDE4NzYuNjU0NSAiIGZpbGw9Im5vbmUiIGlkPSJMMjMtdG8tTDI0IiBzdHlsZT0ic3Ryb2tlOiMxODE4MTg7c3Ryb2tlLXdpZHRoOjEuMDsiLz48cG9seWdvbiBmaWxsPSIjMTgxODE4IiBwb2ludHM9IjU3MS4wOCwxODgxLjgxLDU2OS45MTI5LDE4NzIuMDMwNSw1NjguNTIyMiwxODc3LjUxMzgsNTYzLjAzODksMTg3Ni4xMjMsNTcxLjA4LDE4ODEuODEiIHN0eWxlPSJzdHJva2U6IzE4MTgxODtzdHJva2Utd2lkdGg6MS4wOyIvPjwvZz48IS0tbGluayBMMjMgdG8gTDI1LS0+PGcgaWQ9ImxpbmtfTDIzX0wyNSI+PHBhdGggZD0iTTQ3OC42NywxNzUyLjI2IEM0NzYuOTYsMTgwMy4yOCA0NzMuMjAxOSwxOTE1LjE5MzQgNDcxLjQ5MTksMTk2NS45OTM0ICIgZmlsbD0ibm9uZSIgaWQ9IkwyMy10by1MMjUiIHN0eWxlPSJzdHJva2U6IzE4MTgxODtzdHJva2Utd2lkdGg6MS4wOyIvPjxwb2x5Z29uIGZpbGw9IiMxODE4MTgiIHBvaW50cz0iNDcxLjI5LDE5NzEuOTksNDc1LjU5MDUsMTk2My4xMjk3LDQ3MS40NTgyLDE5NjYuOTkyOCw0NjcuNTk1LDE5NjIuODYwNSw0NzEuMjksMTk3MS45OSIgc3R5bGU9InN0cm9rZTojMTgxODE4O3N0cm9rZS13aWR0aDoxLjA7Ii8+PC9nPjwhLS1saW5rIEwyMyB0byBMMjYtLT48ZyBpZD0ibGlua19MMjNfTDI2Ij48cGF0aCBkPSJNNDQ1LjYsMTc1Mi4wNSBDNDI4LjExLDE3NjQuNDYgNDExLjcxMzMsMTc3Ni4wOTc5IDM5NC4yMjMzLDE3ODguNTA3OSAiIGZpbGw9Im5vbmUiIGlkPSJMMjMtdG8tTDI2IiBzdHlsZT0ic3Ryb2tlOiMxODE4MTg7c3Ryb2tlLXdpZHRoOjEuMDsiLz48cG9seWdvbiBmaWxsPSIjMTgxODE4IiBwb2ludHM9IjM4OS4zMywxNzkxLjk4LDM5OC45ODQ3LDE3OTAuMDM0MSwzOTMuNDA3OCwxNzg5LjA4NjYsMzk0LjM1NTMsMTc4My41MDk3LDM4OS4zMywxNzkxLjk4IiBzdHlsZT0ic3Ryb2tlOiMxODE4MTg7c3Ryb2tlLXdpZHRoOjEuMDsiLz48L2c+PCEtLWxpbmsgTDIyIHRvIEwyNy0tPjxnIGlkPSJsaW5rX0wyMl9MMjciPjxwYXRoIGQ9Ik0zNDIuMDgsMTY2Mi4wNSBDMzMwLjUxLDE2NzQuNDYgMzIwLjUxOTYsMTY4NS4xNzk3IDMwOC45NTk2LDE2OTcuNTg5NyAiIGZpbGw9Im5vbmUiIGlkPSJMMjItdG8tTDI3IiBzdHlsZT0ic3Ryb2tlOiMxODE4MTg7c3Ryb2tlLXdpZHRoOjEuMDsiLz48cG9seWdvbiBmaWxsPSIjMTgxODE4IiBwb2ludHM9IjMwNC44NywxNzAxLjk4LDMxMy45MzEzLDE2OTguMTIwOSwzMDguMjc4LDE2OTguMzIxNCwzMDguMDc3NSwxNjkyLjY2ODEsMzA0Ljg3LDE3MDEuOTgiIHN0eWxlPSJzdHJva2U6IzE4MTgxODtzdHJva2Utd2lkdGg6MS4wOyIvPjwvZz48IS0tbGluayBMMjcgdG8gTDI4LS0+PGcgaWQ9ImxpbmtfTDI3X0wyOCI+PHBhdGggZD0iTTI3Mi44NiwxNzUyLjI4IEMyNjguNSwxNzY0LjEgMjYzLjYzLDE3NzguNjIgMjYwLjQ5LDE3OTIgQzI1My4zMSwxODIyLjUxIDI0OS44MjQyLDE4NTIuNDkyOSAyNDcuNzg0MiwxODc1Ljc1MjkgIiBmaWxsPSJub25lIiBpZD0iTDI3LXRvLUwyOCIgc3R5bGU9InN0cm9rZTojMTgxODE4O3N0cm9rZS13aWR0aDoxLjA7Ii8+PHBvbHlnb24gZmlsbD0iIzE4MTgxOCIgcG9pbnRzPSIyNDcuMjYsMTg4MS43MywyNTIuMDMxLDE4NzMuMTEzOSwyNDcuNjk2OCwxODc2Ljc0OTEsMjQ0LjA2MTYsMTg3Mi40MTQ5LDI0Ny4yNiwxODgxLjczIiBzdHlsZT0ic3Ryb2tlOiMxODE4MTg7c3Ryb2tlLXdpZHRoOjEuMDsiLz48L2c+PCEtLWxpbmsgTDI2IHRvIEwyOC0tPjxnIGlkPSJsaW5rX0wyNl9MMjgiPjxwYXRoIGQ9Ik0zMjUuNDMsMTg0Mi4wNSBDMzA5LjkxLDE4NTQuNDYgMjk1LjcwNDksMTg2NS44MjE1IDI4MC4xOTQ5LDE4NzguMjMxNSAiIGZpbGw9Im5vbmUiIGlkPSJMMjYtdG8tTDI4IiBzdHlsZT0ic3Ryb2tlOiMxODE4MTg7c3Ryb2tlLXdpZHRoOjEuMDsiLz48cG9seWdvbiBmaWxsPSIjMTgxODE4IiBwb2ludHM9IjI3NS41MSwxODgxLjk4LDI4NS4wMzY0LDE4NzkuNDgwNSwyNzkuNDE0MSwxODc4Ljg1NjIsMjgwLjAzODQsMTg3My4yMzM5LDI3NS41MSwxODgxLjk4IiBzdHlsZT0ic3Ryb2tlOiMxODE4MTg7c3Ryb2tlLXdpZHRoOjEuMDsiLz48L2c+PCEtLWxpbmsgTDE0IHRvIEwyOS0tPjxnIGlkPSJsaW5rX0wxNF9MMjkiPjxwYXRoIGQ9Ik0yNTguOTcsMTEyMy4xNSBDMTg1LjY2LDExMzMuMTQgOTAuMDQsMTE1MC43MyA2MS40OSwxMTc3IEMxNC44LDEyMTkuOTcgNiwxMjU5LjgxIDMzLjQ5LDEzMTcgQzQyLjgxLDEzMzYuNCA1Ni4xNDI5LDEzNDguNTE1NSA3Mi45NDI5LDEzNTkuMzE1NSAiIGZpbGw9Im5vbmUiIGlkPSJMMTQtdG8tTDI5IiBzdHlsZT0ic3Ryb2tlOiMxODE4MTg7c3Ryb2tlLXdpZHRoOjEuMDsiLz48cG9seWdvbiBmaWxsPSIjMTgxODE4IiBwb2ludHM9Ijc3Ljk5LDEzNjIuNTYsNzIuNTgyNCwxMzU0LjMyODUsNzMuNzg0MSwxMzU5Ljg1NjIsNjguMjU2NCwxMzYxLjA1NzksNzcuOTksMTM2Mi41NiIgc3R5bGU9InN0cm9rZTojMTgxODE4O3N0cm9rZS13aWR0aDoxLjA7Ii8+PC9nPjwhLS1saW5rIEwyOSB0byBMMzAtLT48ZyBpZD0ibGlua19MMjlfTDMwIj48cGF0aCBkPSJNMTE3Ljg5LDE0MDcuMTkgQzEyMy41MSwxNDQwLjE1IDEzMi40OSwxNTAxLjA4IDEzMi40OSwxNTUzLjUgQzEzMi40OSwxNTUzLjUgMTMyLjQ5LDE1NTMuNSAxMzIuNDksMTgxOCBDMTMyLjQ5LDE4NzAuMzkgMTMyLjkyLDE4ODguNzUgMTYyLjQ5LDE5MzIgQzE3My40NywxOTQ4LjA2IDE4NC44NjA4LDE5NTguMjQyMSAyMDAuNTMwOCwxOTY4LjY0MjEgIiBmaWxsPSJub25lIiBpZD0iTDI5LXRvLUwzMCIgc3R5bGU9InN0cm9rZTojMTgxODE4O3N0cm9rZS13aWR0aDoxLjA7Ii8+PHBvbHlnb24gZmlsbD0iIzE4MTgxOCIgcG9pbnRzPSIyMDUuNTMsMTk3MS45NiwyMDAuMjQzMiwxOTYzLjY1MDQsMjAxLjM2NCwxOTY5LjE5NTEsMTk1LjgxOTMsMTk3MC4zMTU5LDIwNS41MywxOTcxLjk2IiBzdHlsZT0ic3Ryb2tlOiMxODE4MTg7c3Ryb2tlLXdpZHRoOjEuMDsiLz48L2c+PCEtLWxpbmsgTDI4IHRvIEwzMC0tPjxnIGlkPSJsaW5rX0wyOF9MMzAiPjxwYXRoIGQ9Ik0yNDYuODUsMTkzMi4wNSBDMjQ3LjU2LDE5NDQuNDYgMjQ4LjA4MjEsMTk1My41Nzk1IDI0OC43ODIxLDE5NjUuOTg5NSAiIGZpbGw9Im5vbmUiIGlkPSJMMjgtdG8tTDMwIiBzdHlsZT0ic3Ryb2tlOiMxODE4MTg7c3Ryb2tlLXdpZHRoOjEuMDsiLz48cG9seWdvbiBmaWxsPSIjMTgxODE4IiBwb2ludHM9IjI0OS4xMiwxOTcxLjk4LDI1Mi42MDY4LDE5NjIuNzY5LDI0OC44Mzg0LDE5NjYuOTg3OSwyNDQuNjE5NSwxOTYzLjIxOTUsMjQ5LjEyLDE5NzEuOTgiIHN0eWxlPSJzdHJva2U6IzE4MTgxODtzdHJva2Utd2lkdGg6MS4wOyIvPjwvZz48IS0tbGluayBMMzAgdG8gTDMxLS0+PGcgaWQ9ImxpbmtfTDMwX0wzMSI+PHBhdGggZD0iTTI3NS42MywyMDIyLjA1IEMyODguNjEsMjAzNC40NiAzMDAuMDYzMiwyMDQ1LjQyMzcgMzEzLjA0MzIsMjA1Ny44MzM3ICIgZmlsbD0ibm9uZSIgaWQ9IkwzMC10by1MMzEiIHN0eWxlPSJzdHJva2U6IzE4MTgxODtzdHJva2Utd2lkdGg6MS4wOyIvPjxwb2x5Z29uIGZpbGw9IiMxODE4MTgiIHBvaW50cz0iMzE3LjM4LDIwNjEuOTgsMzEzLjYzOSwyMDUyLjg2OTMsMzEzLjc2NiwyMDU4LjUyNDcsMzA4LjExMDYsMjA1OC42NTE3LDMxNy4zOCwyMDYxLjk4IiBzdHlsZT0ic3Ryb2tlOiMxODE4MTg7c3Ryb2tlLXdpZHRoOjEuMDsiLz48L2c+PCEtLWxpbmsgTDI1IHRvIEwzMS0tPjxnIGlkPSJsaW5rX0wyNV9MMzEiPjxwYXRoIGQ9Ik00MzUuNTEsMjAyMi4wNSBDNDE3LjQ1LDIwMzQuNDYgNDAwLjQyNTEsMjA0Ni4xNzIgMzgyLjM2NTEsMjA1OC41ODIgIiBmaWxsPSJub25lIiBpZD0iTDI1LXRvLUwzMSIgc3R5bGU9InN0cm9rZTojMTgxODE4O3N0cm9rZS13aWR0aDoxLjA7Ii8+PHBvbHlnb24gZmlsbD0iIzE4MTgxOCIgcG9pbnRzPSIzNzcuNDIsMjA2MS45OCwzODcuMTAyOSwyMDYwLjE3OTcsMzgxLjU0MDksMjA1OS4xNDgzLDM4Mi41NzIyLDIwNTMuNTg2MywzNzcuNDIsMjA2MS45OCIgc3R5bGU9InN0cm9rZTojMTgxODE4O3N0cm9rZS13aWR0aDoxLjA7Ii8+PC9nPjwhLS1saW5rIEw3IHRvIEwzMi0tPjxnIGlkPSJsaW5rX0w3X0wzMiI+PHBhdGggZD0iTTU2MC4yOCw2ODcuMiBDNTcyLjY0LDY5OC4yMyA1ODYuMTQsNzEyLjE0IDU5NS40OSw3MjcgQzYzMi40NSw3ODUuNzkgNjUwLjQ2MjUsODYwLjk0ODggNjU4LjE3MjUsOTAwLjg3ODggIiBmaWxsPSJub25lIiBpZD0iTDctdG8tTDMyIiBzdHlsZT0ic3Ryb2tlOiMxODE4MTg7c3Ryb2tlLXdpZHRoOjEuMDsiLz48cG9seWdvbiBmaWxsPSIjMTgxODE4IiBwb2ludHM9IjY1OS4zMSw5MDYuNzcsNjYxLjUzMTIsODk3LjE3NDksNjU4LjM2MjEsOTAxLjg2MDcsNjUzLjY3NjMsODk4LjY5MTYsNjU5LjMxLDkwNi43NyIgc3R5bGU9InN0cm9rZTojMTgxODE4O3N0cm9rZS13aWR0aDoxLjA7Ii8+PC9nPjwhLS1saW5rIEwzMiB0byBMMzMtLT48ZyBpZD0ibGlua19MMzJfTDMzIj48cGF0aCBkPSJNNjcxLjc5LDk1Ny4xNCBDNjgyLjcsOTkxLjA3IDcwMC40OSwxMDU0Ljk4IDcwMC40OSwxMTExIEM3MDAuNDksMTExMSA3MDAuNDksMTExMSA3MDAuNDksMTk5OCBDNzAwLjQ5LDIwODAuNjYgNjE2LjM4MjUsMjEyNS40ODQzIDU0MS4xMzI1LDIxNTAuMTA0MyAiIGZpbGw9Im5vbmUiIGlkPSJMMzItdG8tTDMzIiBzdHlsZT0ic3Ryb2tlOiMxODE4MTg7c3Ryb2tlLXdpZHRoOjEuMDsiLz48cG9seWdvbiBmaWxsPSIjMTgxODE4IiBwb2ludHM9IjUzNS40MywyMTUxLjk3LDU0NS4yMjc2LDIxNTIuOTczMSw1NDAuMTgyMSwyMTUwLjQxNTIsNTQyLjc0LDIxNDUuMzY5Nyw1MzUuNDMsMjE1MS45NyIgc3R5bGU9InN0cm9rZTojMTgxODE4O3N0cm9rZS13aWR0aDoxLjA7Ii8+PC9nPjwhLS1saW5rIEwzMSB0byBMMzMtLT48ZyBpZD0ibGlua19MMzFfTDMzIj48cGF0aCBkPSJNMzY3LjYzLDIxMTIuMDUgQzM4MC42MSwyMTI0LjQ2IDM5Mi4wNjMyLDIxMzUuNDIzNyA0MDUuMDQzMiwyMTQ3LjgzMzcgIiBmaWxsPSJub25lIiBpZD0iTDMxLXRvLUwzMyIgc3R5bGU9InN0cm9rZTojMTgxODE4O3N0cm9rZS13aWR0aDoxLjA7Ii8+PHBvbHlnb24gZmlsbD0iIzE4MTgxOCIgcG9pbnRzPSI0MDkuMzgsMjE1MS45OCw0MDUuNjM5LDIxNDIuODY5Myw0MDUuNzY2LDIxNDguNTI0Nyw0MDAuMTEwNiwyMTQ4LjY1MTcsNDA5LjM4LDIxNTEuOTgiIHN0eWxlPSJzdHJva2U6IzE4MTgxODtzdHJva2Utd2lkdGg6MS4wOyIvPjwvZz48IS0tbGluayBMMzMgdG8gTDM0LS0+PGcgaWQ9ImxpbmtfTDMzX0wzNCI+PHBhdGggZD0iTTQzNC40OSwyMjAyLjA1IEM0MzQuNDksMjIxNC40NiA0MzQuNDksMjIyMy41NyA0MzQuNDksMjIzNS45OCAiIGZpbGw9Im5vbmUiIGlkPSJMMzMtdG8tTDM0IiBzdHlsZT0ic3Ryb2tlOiMxODE4MTg7c3Ryb2tlLXdpZHRoOjEuMDsiLz48cG9seWdvbiBmaWxsPSIjMTgxODE4IiBwb2ludHM9IjQzNC40OSwyMjQxLjk4LDQzOC40OSwyMjMyLjk4LDQzNC40OSwyMjM2Ljk4LDQzMC40OSwyMjMyLjk4LDQzNC40OSwyMjQxLjk4IiBzdHlsZT0ic3Ryb2tlOiMxODE4MTg7c3Ryb2tlLXdpZHRoOjEuMDsiLz48L2c+PCEtLWxpbmsgTDI0IHRvIEwzNC0tPjxnIGlkPSJsaW5rX0wyNF9MMzQiPjxwYXRoIGQ9Ik01OTAuNTksMTkzMi4yNSBDNjAwLjQ5LDE5ODYuMDMgNjE2LjYxLDIxMTcuMjIgNTU5LjQ5LDIyMDIgQzU0Ny4wMiwyMjIwLjUgNTMyLjkwMDgsMjIzMS4zMzYzIDUxMi45NjA4LDIyNDAuOTg2MyAiIGZpbGw9Im5vbmUiIGlkPSJMMjQtdG8tTDM0IiBzdHlsZT0ic3Ryb2tlOiMxODE4MTg7c3Ryb2tlLXdpZHRoOjEuMDsiLz48cG9seWdvbiBmaWxsPSIjMTgxODE4IiBwb2ludHM9IjUwNy41NiwyMjQzLjYsNTE3LjQwMzcsMjI0My4yNzk5LDUxMi4wNjA3LDIyNDEuNDIxOSw1MTMuOTE4NywyMjM2LjA3ODksNTA3LjU2LDIyNDMuNiIgc3R5bGU9InN0cm9rZTojMTgxODE4O3N0cm9rZS13aWR0aDoxLjA7Ii8+PC9nPjwhLS1saW5rIEwzNCB0byBMMzUtLT48ZyBpZD0ibGlua19MMzRfTDM1Ij48cGF0aCBkPSJNNDA2LjYyLDIyOTIuMDUgQzM5Mi4yMiwyMzA0LjQ2IDM3OS4yNTI0LDIzMTUuNjQ5OSAzNjQuODcyNCwyMzI4LjA1OTkgIiBmaWxsPSJub25lIiBpZD0iTDM0LXRvLUwzNSIgc3R5bGU9InN0cm9rZTojMTgxODE4O3N0cm9rZS13aWR0aDoxLjA7Ii8+PHBvbHlnb24gZmlsbD0iIzE4MTgxOCIgcG9pbnRzPSIzNjAuMzMsMjMzMS45OCwzNjkuNzU2OSwyMzI5LjEyODEsMzY0LjExNTMsMjMyOC43MTMzLDM2NC41MzAyLDIzMjMuMDcxNiwzNjAuMzMsMjMzMS45OCIgc3R5bGU9InN0cm9rZTojMTgxODE4O3N0cm9rZS13aWR0aDoxLjA7Ii8+PC9nPjwhLS1saW5rIEwzNSB0byBMMzYtLT48ZyBpZD0ibGlua19MMzVfTDM2Ij48cGF0aCBkPSJNMzA0LjYyLDIzODIuMDUgQzI5MC4yMiwyMzk0LjQ2IDI3Ny4yNTI0LDI0MDUuNjQ5OSAyNjIuODcyNCwyNDE4LjA1OTkgIiBmaWxsPSJub25lIiBpZD0iTDM1LXRvLUwzNiIgc3R5bGU9InN0cm9rZTojMTgxODE4O3N0cm9rZS13aWR0aDoxLjA7Ii8+PHBvbHlnb24gZmlsbD0iIzE4MTgxOCIgcG9pbnRzPSIyNTguMzMsMjQyMS45OCwyNjcuNzU2OSwyNDE5LjEyODEsMjYyLjExNTMsMjQxOC43MTMzLDI2Mi41MzAyLDI0MTMuMDcxNiwyNTguMzMsMjQyMS45OCIgc3R5bGU9InN0cm9rZTojMTgxODE4O3N0cm9rZS13aWR0aDoxLjA7Ii8+PC9nPjwhLS1saW5rIEwzMSB0byBMMzYtLT48ZyBpZD0ibGlua19MMzFfTDM2Ij48cGF0aCBkPSJNMzI4LjM0LDIxMTIuMTEgQzMyMS43OCwyMTIzLjg5IDMxNC4xOSwyMTM4LjQzIDMwOC40OSwyMTUyIEMyNzYsMjIyOS4zNyAyNzEuNzksMjI1MC41OCAyNTEuNDksMjMzMiBDMjQzLjg0LDIzNjIuNjYgMjM4LjYwNzUsMjM5Mi42NjIxIDIzNC45Nzc1LDI0MTUuODYyMSAiIGZpbGw9Im5vbmUiIGlkPSJMMzEtdG8tTDM2IiBzdHlsZT0ic3Ryb2tlOiMxODE4MTg7c3Ryb2tlLXdpZHRoOjEuMDsiLz48cG9seWdvbiBmaWxsPSIjMTgxODE4IiBwb2ludHM9IjIzNC4wNSwyNDIxLjc5LDIzOS4zOTMyLDI0MTMuNTE2NSwyMzQuODIyOSwyNDE2Ljg1MDEsMjMxLjQ4OTMsMjQxMi4yNzk4LDIzNC4wNSwyNDIxLjc5IiBzdHlsZT0ic3Ryb2tlOiMxODE4MTg7c3Ryb2tlLXdpZHRoOjEuMDsiLz48L2c+PCEtLWxpbmsgTDM2IHRvIEwzNy0tPjxnIGlkPSJsaW5rX0wzNl9MMzciPjxwYXRoIGQ9Ik0yMjguMywyNDcyLjA1IEMyMjcuMTcsMjQ4NC40NiAyMjYuMzQ0MSwyNDkzLjU5NDcgMjI1LjIxNDEsMjUwNi4wMDQ3ICIgZmlsbD0ibm9uZSIgaWQ9IkwzNi10by1MMzciIHN0eWxlPSJzdHJva2U6IzE4MTgxODtzdHJva2Utd2lkdGg6MS4wOyIvPjxwb2x5Z29uIGZpbGw9IiMxODE4MTgiIHBvaW50cz0iMjI0LjY3LDI1MTEuOTgsMjI5LjQ2OTYsMjUwMy4zNzk4LDIyNS4xMjM0LDI1MDcuMDAwNiwyMjEuNTAyNiwyNTAyLjY1NDQsMjI0LjY3LDI1MTEuOTgiIHN0eWxlPSJzdHJva2U6IzE4MTgxODtzdHJva2Utd2lkdGg6MS4wOyIvPjwvZz48IS0tbGluayBMMzcgdG8gTDM4LS0+PGcgaWQ9ImxpbmtfTDM3X0wzOCI+PHBhdGggZD0iTTIyMC4zLDI1NjIuMDUgQzIxOS4xNywyNTc0LjQ2IDIxOC4zNDQxLDI1ODMuNTk0NyAyMTcuMjE0MSwyNTk2LjAwNDcgIiBmaWxsPSJub25lIiBpZD0iTDM3LXRvLUwzOCIgc3R5bGU9InN0cm9rZTojMTgxODE4O3N0cm9rZS13aWR0aDoxLjA7Ii8+PHBvbHlnb24gZmlsbD0iIzE4MTgxOCIgcG9pbnRzPSIyMTYuNjcsMjYwMS45OCwyMjEuNDY5NiwyNTkzLjM3OTgsMjE3LjEyMzQsMjU5Ny4wMDA2LDIxMy41MDI2LDI1OTIuNjU0NCwyMTYuNjcsMjYwMS45OCIgc3R5bGU9InN0cm9rZTojMTgxODE4O3N0cm9rZS13aWR0aDoxLjA7Ii8+PC9nPjwhLS1saW5rIEwzOCB0byBMMzktLT48ZyBpZD0ibGlua19MMzhfTDM5Ij48cGF0aCBkPSJNMjExLjQ4LDI2NTIuMDUgQzIwOS45MywyNjY0LjQ2IDIwOC43ODM2LDI2NzMuNjE2MyAyMDcuMjMzNiwyNjg2LjAyNjMgIiBmaWxsPSJub25lIiBpZD0iTDM4LXRvLUwzOSIgc3R5bGU9InN0cm9rZTojMTgxODE4O3N0cm9rZS13aWR0aDoxLjA7Ii8+PHBvbHlnb24gZmlsbD0iIzE4MTgxOCIgcG9pbnRzPSIyMDYuNDksMjY5MS45OCwyMTEuNTc0NiwyNjgzLjU0NTEsMjA3LjEwOTcsMjY4Ny4wMTg1LDIwMy42MzYzLDI2ODIuNTUzNiwyMDYuNDksMjY5MS45OCIgc3R5bGU9InN0cm9rZTojMTgxODE4O3N0cm9rZS13aWR0aDoxLjA7Ii8+PC9nPjwhLS1saW5rIEwyOCB0byBMMzktLT48ZyBpZD0ibGlua19MMjhfTDM5Ij48cGF0aCBkPSJNMTc0LjgsMTkzMi4wOCBDMTU1Ljg2LDE5NDEuNzMgMTM3LjE0LDE5NTQuNzYgMTI0LjQ5LDE5NzIgQzk0LDIwMTMuNTMgMTAzLjQ5LDIwMzQuNDggMTAzLjQ5LDIwODYgQzEwMy40OSwyMDg2IDEwMy40OSwyMDg2IDEwMy40OSwyNTM4IEMxMDMuNDksMjU5MC4zOSAxMDYuMzgsMjYwNy4xNiAxMzMuNDksMjY1MiBDMTQyLjY5LDI2NjcuMjIgMTUxLjk3MDEsMjY3Ny4xNDk2IDE2NC45NzAxLDI2ODcuOTc5NiAiIGZpbGw9Im5vbmUiIGlkPSJMMjgtdG8tTDM5IiBzdHlsZT0ic3Ryb2tlOiMxODE4MTg7c3Ryb2tlLXdpZHRoOjEuMDsiLz48cG9seWdvbiBmaWxsPSIjMTgxODE4IiBwb2ludHM9IjE2OS41OCwyNjkxLjgyLDE2NS4yMjU0LDI2ODIuOTg2MSwxNjUuNzM4NCwyNjg4LjYxOTcsMTYwLjEwNDksMjY4OS4xMzI3LDE2OS41OCwyNjkxLjgyIiBzdHlsZT0ic3Ryb2tlOiMxODE4MTg7c3Ryb2tlLXdpZHRoOjEuMDsiLz48L2c+PCEtLWxpbmsgTDM5IHRvIEw0MC0tPjxnIGlkPSJsaW5rX0wzOV9MNDAiPjxwYXRoIGQ9Ik0yMDMuNDksMjc0Mi4wNSBDMjAzLjQ5LDI3NTQuNDYgMjAzLjQ5LDI3NjMuNTcgMjAzLjQ5LDI3NzUuOTggIiBmaWxsPSJub25lIiBpZD0iTDM5LXRvLUw0MCIgc3R5bGU9InN0cm9rZTojMTgxODE4O3N0cm9rZS13aWR0aDoxLjA7Ii8+PHBvbHlnb24gZmlsbD0iIzE4MTgxOCIgcG9pbnRzPSIyMDMuNDksMjc4MS45OCwyMDcuNDksMjc3Mi45OCwyMDMuNDksMjc3Ni45OCwxOTkuNDksMjc3Mi45OCwyMDMuNDksMjc4MS45OCIgc3R5bGU9InN0cm9rZTojMTgxODE4O3N0cm9rZS13aWR0aDoxLjA7Ii8+PC9nPjwhLS1saW5rIEwzNCB0byBMNDEtLT48ZyBpZD0ibGlua19MMzRfTDQxIj48cGF0aCBkPSJNNDM0LjQ5LDIyOTIuMTggQzQzNC40OSwyMzI2LjQyIDQzNC40OSwyMzkwLjk5IDQzNC40OSwyNDQ2IEM0MzQuNDksMjQ0NiA0MzQuNDksMjQ0NiA0MzQuNDksMjcxOCBDNDM0LjQ5LDI3OTYuOTggMzU0LjMwMTMsMjg0My42MjM0IDI4Ny4yODEzLDI4NjkuNzEzNCAiIGZpbGw9Im5vbmUiIGlkPSJMMzQtdG8tTDQxIiBzdHlsZT0ic3Ryb2tlOiMxODE4MTg7c3Ryb2tlLXdpZHRoOjEuMDsiLz48cG9seWdvbiBmaWxsPSIjMTgxODE4IiBwb2ludHM9IjI4MS42OSwyODcxLjg5LDI5MS41MjgsMjg3Mi4zNTI2LDI4Ni4zNDk0LDI4NzAuMDc2MiwyODguNjI1OCwyODY0Ljg5NzYsMjgxLjY5LDI4NzEuODkiIHN0eWxlPSJzdHJva2U6IzE4MTgxODtzdHJva2Utd2lkdGg6MS4wOyIvPjwvZz48IS0tbGluayBMMzcgdG8gTDQxLS0+PGcgaWQ9ImxpbmtfTDM3X0w0MSI+PHBhdGggZD0iTTE3OC4xOSwyNTYyLjE2IEMxNjIuMywyNTcyLjY1IDE0NS4zOCwyNTg2LjE4IDEzMy40OSwyNjAyIEMxMDcuOTgsMjYzNS45NCAxMDguNywyNjUwLjE2IDEwMS40OSwyNjkyIEM5Ni45OSwyNzE4LjA1IDEwMy43MSwyODI4Ljg4IDEwNS40OSwyODMyIEMxMTUuMSwyODQ4Ljg2IDEyNi4wNDY0LDI4NTguOTM0MSAxNDIuNDI2NCwyODY4Ljg0NDEgIiBmaWxsPSJub25lIiBpZD0iTDM3LXRvLUw0MSIgc3R5bGU9InN0cm9rZTojMTgxODE4O3N0cm9rZS13aWR0aDoxLjA7Ii8+PHBvbHlnb24gZmlsbD0iIzE4MTgxOCIgcG9pbnRzPSIxNDcuNTYsMjg3MS45NSwxNDEuOTMwMiwyODYzLjg2ODgsMTQzLjI4MiwyODY5LjM2MTgsMTM3Ljc4OTEsMjg3MC43MTM2LDE0Ny41NiwyODcxLjk1IiBzdHlsZT0ic3Ryb2tlOiMxODE4MTg7c3Ryb2tlLXdpZHRoOjEuMDsiLz48L2c+PCEtLWxpbmsgTDQwIHRvIEw0MS0tPjxnIGlkPSJsaW5rX0w0MF9MNDEiPjxwYXRoIGQ9Ik0yMDMuNDksMjgzMi4wNSBDMjAzLjQ5LDI4NDQuNDYgMjAzLjQ5LDI4NTMuNTcgMjAzLjQ5LDI4NjUuOTggIiBmaWxsPSJub25lIiBpZD0iTDQwLXRvLUw0MSIgc3R5bGU9InN0cm9rZTojMTgxODE4O3N0cm9rZS13aWR0aDoxLjA7Ii8+PHBvbHlnb24gZmlsbD0iIzE4MTgxOCIgcG9pbnRzPSIyMDMuNDksMjg3MS45OCwyMDcuNDksMjg2Mi45OCwyMDMuNDksMjg2Ni45OCwxOTkuNDksMjg2Mi45OCwyMDMuNDksMjg3MS45OCIgc3R5bGU9InN0cm9rZTojMTgxODE4O3N0cm9rZS13aWR0aDoxLjA7Ii8+PC9nPjwhLS1TUkM9W2RMVFRRbmo3NTd0TmhyWm80V2Fzemp3UF9KSXVhRFhuT2IyZVNHb2I0MzFSUVBFZ2JiVDZNV054SktyUU45OHFlT0ktRDJjcWIzSGpJVEU2a2szNlFOd0Q5QWpGLUdremlwaXBjamJUc014ek8yd2hkTkZrdDdsRmNUZHBua0picC1FbDN1UF9GbnVUdFhzejZlb1Y3MW1WRjFfalZwS3k3MG5WRnRkdHZpN2VxTV9aeF91UVZfZG9kd1Uzb08tVkpsUF9jTnBfT0ZCeHRTY3pFdk5VTFlsVTJSbFhqajREdXdyVWo2Rk9ibDhteFpHWnpmMU9iU2Z2T3I3ekNvdzVaUXNGRWQ2YUZ5Uk5aYi15QzJuWnpFZkVmSGlyYVoyLXJPd0NTelEyU1ZOQXpJSlFoZTloS2JBeDRSX1ZKdFJ3b09BbkhrUmpTcVJPQy1lZjJMaUQtVE1tTzJvSGN2a3RiWmhueFVnQ3JMMmZNeVE1Mi0gLW5ZRUVHRjB2MTcwUlhzWU9yREhXd3hzU21mNUE3MzhPODY5ZzdlTWV3aGJzQUdvanJhazVHV01DcDdBQ3dfbE9QelcxQkQzbnlRRDJRMmNvcEFicmdUbmZSTVBiQ01oZkxNc3VMOG9lWXBrQmFpdEtNWkVLRmI2c1JPQXc0eEx2S2NoUEpnVGlQZTJDMHRKb1dFeXFJS3NJV2ZMMWtmVXZhS0F3MHloR0FxQkcyaGJPMVJ5NnVyY3lkaFVrRGkxclQyUEVlVUo1OXVaOXVKc3VUOHJUNGRDWkZ2LXBwcFdGbnl3c3R2eTdEOEZyQXRTazBWMDRLdjg0MmpWVThMZXVLTEVmLVhYSjhlUlFvcE1VemdBNG05c3lWWnB2X25lazFrUWkzUnljY3lPcEJrWlJiMHFrYzNiQ1A1Tks0cXpQWHRuWXFPc3ZxLXo2OXNBV2k0REFJc2VBMms4M0MwY1ZfUGMwcGtONnpXSEdTNTFHN3o3eldlbUkxUW4yYTI4NmhpNkpBMlpxOUo0bjVJeUMtUkptTFVqSGNtRGFuMTJmWmFLYjFnVTNtQUlNRWN2eklQdnVJM2VtUTFJdklhMmc1V2FwMUxLU0w4TVYwZUt3MTJuTWFLaTR4U0xmbjVvZ0o5d1VMUHJ1c2hHZ2JmLW4wUVhPQWVXTFZ5S0RpRUdFVkRReUFFaWVPWDFZYWEyNHVVel9IVXA0UkJQRldqQ09oXzJYLXU4UUtuaHdDWXdWZXJJWGk1YXhHeUh5X1pKenh6RXhERG4tcE51VDczdVU3el8wdW5fblBjbGtsWkllNERVRnV3RmRucVEtWmp1Rlh1TnJ2dVhLRU5jOGZDbUtjT0NzZ1VCcHRheXNUUmtVSkVMQlpubnVRMkYxbjlUOTFJQzUxMjNoOG5UTUxySWZPbjNQemlIZWpXZDJCOERGWmp0Wi1hYzhvN3BnY3FTUTJUaUZzUFdEX3d5clAwWE5EV09aM005ZTNlTGFacl9SbVhqOWc4Ym1JeElRTlR2RGtzNFhRZE04dEZIRGk0elVoVVEyVHA1Z0ZBVHRpVGhPbmZ4c2VzbkVoSEtmSy1ZbUJuSDJwYzEwUFlxb3ZyTG85YWpNdTZVcmNpckFyUVdRLW5tdW94VUdadzJzNURzXzRvaXE0Tk9IbTVvN0lIT1hKSVc4UDJSQ1pkU0tmaUIwa0FCdjU3OEw2c1dqbklzYjhIaUU2TndUbjJwSkNwSElMNDVVWGFSUDNrRXNpQnJxaHozN05HbEdTVjBreGJSNXBMNHpmWDdHTXVjVWVBX3JVYkJmOUFrS1lXTVZZRlpLSUQyMXpLUHVGbE9ROFdNMm5Bc0YxN1NwVWFVd1k5OTB4SWpsNjZHOWJwRUhiV2VoQm41d0NHem5Pbkhka3hkSEdIWlowYzcyUDM0WFc0aXRKQUJqWnA1b1ZJdUVZRm4zazNzZGlvcllhMTZTZ0NoTkduaEtxZUFwNkFaTVEyLU5jbWNCWW81WEdhemFycmd2TGJDV0lDX2JuVjI4ckpRVHRWbGdWMnlva3d3Mm5xVENBaDJJMTNhQjUxbUVCR1NPWThfaml6U05KTG5paFFmVkxMczVjdG4xU1kybWNqZW01Q3hTT3ZqbmNCLWNzY2o0WUFIQmhoQ01oWkR2S1QxYWdjQUpCSzVTb0RTQWFJRTdhQS1vY0JGWGtqVGRRWmM5TXJxS2VTQTdMSzM0cWhiOVJRSmtLc3V2c05KQWpFUVRNcDQ0cDJFaGJ4YlpmZVptXy1ySlhuYTJiQUw3X0o1Tkx2elNsZ1FmWUhuR2pZOGZQYlhQNFd2RWh3a1VEOFBYUExQS0JaT2FBNW1XS0h2MGNQTGpkaHNnV1ZHUFJpd2dneURsZUdmR3hhWXJUb0VPa2pCd25WN2JaVkpiZ1Q5Zkhqc0hNSlVnUGMxeWs3WnlUNzF6ekNWdlhDRnhwbGZPNC1mQTZLbE1qejBQQUJTbDRncV93clJpUzlSVzJ2TUlrc1VRUThyQTN3TjJkaUpVRFJWN2IzbHkyXS0tPjwvZz48L3N2Zz4=;" vertex="1" parent="1">
            <mxGeometry x="60" y="-1210" width="709" height="2927" as="geometry" />
          </mxCell>
        </UserObject>
      </root>
    </mxGraphModel>
  </diagram>
</mxfile>
